<?xml version="1.0" encoding="UTF-8" standalone="no"?>
<svg width="120px" height="64px" viewBox="0 0 120 64" version="1.1" xmlns="http://www.w3.org/2000/svg" xmlns:xlink="http://www.w3.org/1999/xlink">
    <!-- Generator: Sketch 41.2 (35397) - http://www.bohemiancoding.com/sketch -->
    <title>Group 3</title>
    <desc>Created with Sketch.</desc>
    <defs></defs>
    <g id="Client-Users" stroke="none" stroke-width="1" fill="none" fill-rule="evenodd">
        <g id="Client-Products" transform="translate(-716.000000, -307.000000)" fill="#FFFFFF">
            <g id="DMS-Copy-3" transform="translate(651.000000, 272.000000)">
                <g id="Group-3" transform="translate(65.000000, 35.000000)">
                    <path d="M44.4,25.03 L47.25,25.03 C47.0899992,23.8899943 46.7500026,22.8850043 46.23,22.015 C45.7099974,21.1449956 45.0600039,20.4200029 44.28,19.84 C43.4999961,19.2599971 42.610005,18.8200015 41.61,18.52 C40.609995,18.2199985 39.5500056,18.07 38.43,18.07 C36.7899918,18.07 35.3350063,18.364997 34.065,18.955 C32.7949936,19.5450029 31.7350042,20.3499949 30.885,21.37 C30.0349957,22.3900051 29.3900022,23.5849931 28.95,24.955 C28.5099978,26.3250068 28.29,27.7899922 28.29,29.35 C28.29,30.9100078 28.4949979,32.3699932 28.905,33.73 C29.315002,35.0900068 29.9299959,36.269995 30.75,37.27 C31.5700041,38.270005 32.5999938,39.0549971 33.84,39.625 C35.0800062,40.1950028 36.5299917,40.48 38.19,40.48 C40.9300137,40.48 43.0899921,39.7300075 44.67,38.23 C46.2500079,36.7299925 47.1799986,34.6300135 47.46,31.93 L44.61,31.93 C44.5499997,32.8100044 44.3700015,33.6299962 44.07,34.39 C43.7699985,35.1500038 43.3550026,35.8049972 42.825,36.355 C42.2949973,36.9050027 41.6650036,37.3349984 40.935,37.645 C40.2049963,37.9550015 39.3700047,38.11 38.43,38.11 C37.1499936,38.11 36.0500046,37.8700024 35.13,37.39 C34.2099954,36.9099976 33.4550029,36.265004 32.865,35.455 C32.274997,34.6449959 31.8400014,33.6950054 31.56,32.605 C31.2799986,31.5149945 31.14,30.3600061 31.14,29.14 C31.14,28.0199944 31.2799986,26.9400052 31.56,25.9 C31.8400014,24.8599948 32.274997,23.935004 32.865,23.125 C33.4550029,22.3149959 34.2049954,21.6700024 35.115,21.19 C36.0250045,20.7099976 37.1199936,20.47 38.4,20.47 C39.9000075,20.47 41.1949945,20.8499962 42.285,21.61 C43.3750054,22.3700038 44.0799984,23.5099924 44.4,25.03 Z M51.105,18.58 L51.105,40 L53.655,40 L53.655,18.58 L51.105,18.58 Z M71.7299999,39.94 C71.2899977,40.2000013 70.6800038,40.33 69.8999999,40.33 C69.2399966,40.33 68.7150019,40.1450018 68.3249999,39.775 C67.934998,39.4049981 67.7399999,38.8000042 67.7399999,37.96 C67.0399964,38.8000042 66.2250046,39.4049981 65.2949999,39.775 C64.3649953,40.1450018 63.3600053,40.33 62.2799999,40.33 C61.5799964,40.33 60.9150031,40.2500008 60.2849999,40.09 C59.6549968,39.9299992 59.1100022,39.6800017 58.6499999,39.34 C58.1899976,38.9999983 57.8250013,38.5550027 57.5549999,38.005 C57.2849986,37.4549972 57.1499999,36.7900039 57.1499999,36.01 C57.1499999,35.1299956 57.2999984,34.4100028 57.5999999,33.85 C57.9000014,33.2899972 58.2949975,32.8350017 58.7849999,32.485 C59.2750024,32.1349982 59.8349968,31.8700009 60.4649999,31.69 C61.0950031,31.5099991 61.7399966,31.3600006 62.3999999,31.24 C63.1000034,31.0999993 63.7649968,30.9950003 64.3949999,30.925 C65.0250031,30.8549996 65.5799975,30.7550006 66.0599999,30.625 C66.5400023,30.4949993 66.9199985,30.3050012 67.1999999,30.055 C67.4800013,29.8049987 67.6199999,29.4400024 67.6199999,28.96 C67.6199999,28.3999972 67.515001,27.9500017 67.3049999,27.61 C67.0949989,27.2699983 66.8250016,27.0100009 66.4949999,26.83 C66.1649983,26.6499991 65.795002,26.5300003 65.3849999,26.47 C64.9749979,26.4099997 64.5700019,26.38 64.1699999,26.38 C63.0899945,26.38 62.1900035,26.5849979 61.4699999,26.995 C60.7499963,27.405002 60.3600002,28.1799943 60.2999999,29.32 L57.7499999,29.32 C57.7900001,28.3599952 57.9899981,27.5500033 58.3499999,26.89 C58.7100017,26.2299967 59.1899969,25.695002 59.7899999,25.285 C60.3900029,24.8749979 61.0749961,24.5800009 61.8449999,24.4 C62.6150038,24.2199991 63.4399955,24.13 64.3199999,24.13 C65.0200034,24.13 65.7149965,24.1799995 66.4049999,24.28 C67.0950034,24.3800005 67.7199971,24.5849984 68.2799999,24.895 C68.8400027,25.2050015 69.2899982,25.6399972 69.6299999,26.2 C69.9700016,26.7600028 70.1399999,27.4899955 70.1399999,28.39 L70.1399999,36.37 C70.1399999,36.970003 70.1749996,37.4099986 70.2449999,37.69 C70.3150003,37.9700014 70.5499979,38.11 70.9499999,38.11 C71.170001,38.11 71.4299984,38.0600005 71.7299999,37.96 L71.7299999,39.94 Z M67.5899999,31.99 C67.2699983,32.2300012 66.8500025,32.4049994 66.3299999,32.515 C65.8099973,32.6250005 65.2650028,32.7149996 64.6949999,32.785 C64.1249971,32.8550003 63.5500028,32.9349995 62.9699999,33.025 C62.389997,33.1150004 61.8700022,33.259999 61.4099999,33.46 C60.9499976,33.660001 60.5750014,33.9449981 60.2849999,34.315 C59.9949985,34.6850018 59.8499999,35.1899968 59.8499999,35.83 C59.8499999,36.2500021 59.9349991,36.6049985 60.1049999,36.895 C60.2750008,37.1850014 60.4949986,37.4199991 60.7649999,37.6 C61.0350013,37.7800009 61.3499981,37.9099996 61.7099999,37.99 C62.0700017,38.0700004 62.4499979,38.11 62.8499999,38.11 C63.6900041,38.11 64.4099969,37.9950011 65.0099999,37.765 C65.6100029,37.5349988 66.099998,37.2450017 66.4799999,36.895 C66.8600018,36.5449982 67.139999,36.165002 67.3199999,35.755 C67.5000008,35.3449979 67.5899999,34.9600018 67.5899999,34.6 L67.5899999,31.99 Z M77.1749999,21.7 L77.1749999,18.58 L74.6249999,18.58 L74.6249999,21.7 L77.1749999,21.7 Z M74.6249999,24.49 L74.6249999,40 L77.1749999,40 L77.1749999,24.49 L74.6249999,24.49 Z M81.5099999,24.49 L81.5099999,40 L84.0599999,40 L84.0599999,30.34 C84.0599999,30.0399985 84.1349991,29.6650022 84.2849999,29.215 C84.4350006,28.7649977 84.6749982,28.3300021 85.0049999,27.91 C85.3350015,27.4899979 85.7649972,27.1300015 86.2949999,26.83 C86.8250025,26.5299985 87.4599962,26.38 88.1999999,26.38 C88.7800028,26.38 89.254998,26.4649991 89.6249999,26.635 C89.9950017,26.8050008 90.2899988,27.0449984 90.5099999,27.355 C90.730001,27.6650015 90.8849994,28.0299979 90.9749999,28.45 C91.0650003,28.8700021 91.1099999,29.3299975 91.1099999,29.83 L91.1099999,40 L93.6599999,40 L93.6599999,30.34 C93.6599999,29.139994 94.0199963,28.1800036 94.7399999,27.46 C95.4600035,26.7399964 96.4499936,26.38 97.7099999,26.38 C98.330003,26.38 98.8349979,26.4699991 99.2249999,26.65 C99.6150018,26.8300009 99.9199988,27.0749984 100.14,27.385 C100.360001,27.6950015 100.509999,28.0599979 100.59,28.48 C100.67,28.9000021 100.71,29.3499976 100.71,29.83 L100.71,40 L103.26,40 L103.26,28.63 C103.26,27.829996 103.135001,27.1450028 102.885,26.575 C102.634999,26.0049971 102.285002,25.5400018 101.835,25.18 C101.384998,24.8199982 100.845003,24.5550008 100.215,24.385 C99.5849967,24.2149991 98.8800038,24.13 98.0999999,24.13 C97.0799948,24.13 96.1450041,24.3599977 95.2949999,24.82 C94.4449956,25.2800023 93.7600025,25.9299958 93.2399999,26.77 C92.9199983,25.8099952 92.3700038,25.130002 91.5899999,24.73 C90.809996,24.329998 89.9400047,24.13 88.9799999,24.13 C86.799989,24.13 85.1300057,25.0099912 83.9699999,26.77 L83.9099999,26.77 L83.9099999,24.49 L81.5099999,24.49 Z M109.035,35.11 L106.485,35.11 C106.525,36.0700048 106.724998,36.8849966 107.085,37.555 C107.445002,38.2250033 107.924997,38.7649979 108.525,39.175 C109.125003,39.585002 109.814996,39.8799991 110.595,40.06 C111.375004,40.2400009 112.194996,40.33 113.055,40.33 C113.835004,40.33 114.619996,40.2550007 115.41,40.105 C116.200004,39.9549992 116.909997,39.6900019 117.54,39.31 C118.170003,38.9299981 118.679998,38.4300031 119.07,37.81 C119.460002,37.1899969 119.655,36.4100047 119.655,35.47 C119.655,34.7299963 119.510001,34.1100025 119.22,33.61 C118.929998,33.1099975 118.550002,32.6950016 118.08,32.365 C117.609998,32.0349983 117.070003,31.770001 116.46,31.57 C115.849997,31.369999 115.225003,31.2000007 114.585,31.06 C113.984997,30.9199993 113.385003,30.7850006 112.785,30.655 C112.184997,30.5249993 111.645002,30.3650009 111.165,30.175 C110.684997,29.984999 110.290001,29.7450014 109.98,29.455 C109.669998,29.1649985 109.515,28.8000022 109.515,28.36 C109.515,27.959998 109.614999,27.6350012 109.815,27.385 C110.015001,27.1349987 110.274998,26.9350007 110.595,26.785 C110.915001,26.6349992 111.269998,26.5300003 111.66,26.47 C112.050002,26.4099997 112.434998,26.38 112.815,26.38 C113.235002,26.38 113.649998,26.4249995 114.06,26.515 C114.470002,26.6050004 114.844998,26.749999 115.185,26.95 C115.525002,27.150001 115.804999,27.4149983 116.025,27.745 C116.245001,28.0750016 116.375,28.4899975 116.415,28.99 L118.965,28.99 C118.905,28.0499953 118.705002,27.2650031 118.365,26.635 C118.024998,26.0049968 117.570003,25.5050018 117,25.135 C116.429997,24.7649981 115.775004,24.5050007 115.035,24.355 C114.294996,24.2049992 113.485004,24.13 112.605,24.13 C111.924996,24.13 111.240003,24.2149991 110.55,24.385 C109.859996,24.5550008 109.240003,24.8149982 108.69,25.165 C108.139997,25.5150017 107.690002,25.9699972 107.34,26.53 C106.989998,27.0900028 106.815,27.7599961 106.815,28.54 C106.815,29.540005 107.064997,30.3199972 107.565,30.88 C108.065002,31.4400028 108.689996,31.8749984 109.44,32.185 C110.190004,32.4950015 111.004995,32.7349991 111.885,32.905 C112.765004,33.0750008 113.579996,33.2649989 114.33,33.475 C115.080004,33.685001 115.704997,33.9599983 116.205,34.3 C116.705002,34.6400017 116.955,35.1399967 116.955,35.8 C116.955,36.2800024 116.835001,36.6749984 116.595,36.985 C116.354999,37.2950015 116.050002,37.5299992 115.68,37.69 C115.309998,37.8500008 114.905002,37.9599997 114.465,38.02 C114.024998,38.0800003 113.605002,38.11 113.205,38.11 C112.684997,38.11 112.180002,38.0600005 111.69,37.96 C111.199997,37.8599995 110.760002,37.6950011 110.37,37.465 C109.979998,37.2349988 109.665001,36.9250019 109.425,36.535 C109.184999,36.144998 109.055,35.6700028 109.035,35.11 Z" id="Claims"></path>
                    <path d="M0,23.267907 C0,20.910807 1.91387013,19 4.26790698,19 L17.732093,19 C20.089193,19 22,20.9138701 22,23.267907 L22,36.732093 C22,39.089193 20.0861299,41 17.732093,41 L4.26790698,41 C1.91080704,41 0,39.0861299 0,36.732093 L0,23.267907 Z M17.145568,32.338336 L17.027296,33.402784 C16.9747304,33.7707432 16.8301772,34.0467084 16.593632,34.230688 C16.4096524,34.3883848 15.6868863,34.730056 14.425312,35.255712 C13.8208076,35.4922572 13.2031712,35.7156576 12.572384,35.92592 C11.9415968,36.1361824 11.3239604,36.3267298 10.719456,36.497568 C10.1149516,36.6684062 9.54987996,36.7998182 9.024224,36.891808 C8.49856804,36.9837978 8.03862597,37.029792 7.644384,37.029792 C6.54050648,37.029792 5.43664552,36.5961323 4.332768,35.7288 C3.78082924,35.3082752 3.37345198,34.8943274 3.110624,34.486944 C2.84779602,34.0795606 2.7032428,33.6590422 2.67696,33.225376 C2.6506772,32.7917098 2.72952441,32.3317678 2.913504,31.845536 C3.09748359,31.3593042 3.36030762,30.8139444 3.701984,30.20944 C4.28020556,29.2106937 4.81242424,28.382798 5.298656,27.725728 C5.78488776,27.068658 6.21197683,26.5692924 6.579936,26.227616 C7.28957155,25.5968288 8.38029131,25.0580396 9.852128,24.611232 C11.3239647,24.1644244 12.8483441,23.941024 14.425312,23.941024 C16.0285627,23.941024 17.093,24.138142 17.618656,24.532384 C18.144312,24.9003432 18.407136,25.6099681 18.407136,26.66128 C18.407136,27.6863091 18.1048884,28.4747812 17.500384,29.02672 C16.9221624,29.5786588 15.8708663,30.0254596 14.346464,30.367136 C13.5842629,30.5511156 12.5986727,30.741663 11.389664,30.938784 C10.1806553,31.135905 8.70884067,31.3527348 6.974176,31.58928 C7.13187279,32.9034199 7.84149769,33.9678573 9.103072,34.782624 C11.836483,34.2832508 14.5172882,33.4684963 17.145568,32.338336 Z M14.385888,27.094944 L14.385888,25.439136 L10.246368,25.951648 C9.24762167,27.1869395 8.30145513,28.5667657 7.40784,30.091168 C8.90595949,29.9860368 10.1083795,29.8546248 11.015136,29.696928 C11.9218925,29.5392312 12.6249468,29.3421132 13.12432,29.105568 C13.6236932,28.8690228 13.9587938,28.5930576 14.129632,28.277664 C14.3004702,27.9622704 14.385888,27.5680344 14.385888,27.094944 Z" id="Combined-Shape"></path>
                    <path d="M27.0083691,10 L27.0083691,0.0787304687 L30.2229688,0.0787304687 C31.4411389,0.0787304687 32.2351935,0.128358879 32.6051563,0.227617187 C33.1736357,0.376504651 33.6496172,0.700217234 34.0331152,1.19876465 C34.4166132,1.69731206 34.6083594,2.34135347 34.6083594,3.1309082 C34.6083594,3.73999328 34.4978234,4.25206824 34.276748,4.66714844 C34.0556727,5.08222864 33.774821,5.40819706 33.4341846,5.64506348 C33.0935481,5.8819299 32.7472772,6.03871055 32.3953613,6.11541016 C31.9171167,6.21015672 31.2245748,6.2575293 30.3177148,6.2575293 L29.0115723,6.2575293 L29.0115723,10 L27.0083691,10 Z M29.0115723,1.75708984 L29.0115723,4.57240234 L30.1079199,4.57240234 C30.8974747,4.57240234 31.4253405,4.5205181 31.6915332,4.41674805 C31.9577259,4.312978 32.1663908,4.15055775 32.3175342,3.92948242 C32.4686775,3.7084071 32.544248,3.4512417 32.544248,3.15797852 C32.544248,2.79703921 32.4382237,2.49926875 32.2261719,2.2646582 C32.01412,2.03004766 31.7456755,1.88341826 31.4208301,1.82476562 C31.1817078,1.77964821 30.7012145,1.75708984 29.9793359,1.75708984 L29.0115723,1.75708984 Z M38.1342676,0.0787304687 L38.1342676,3.72645508 C38.7478644,3.00908821 39.4810114,2.65041016 40.3337305,2.65041016 C40.7713694,2.65041016 41.1661408,2.73162028 41.5180566,2.89404297 C41.8699725,3.05646566 42.1350333,3.26400264 42.3132471,3.51666016 C42.4914609,3.76931767 42.613276,4.04904143 42.6786963,4.35583984 C42.7441165,4.66263825 42.7768262,5.13861982 42.7768262,5.78379883 L42.7768262,10 L40.8751367,10 L40.8751367,6.20338867 C40.8751367,5.44992787 40.8390433,4.97169047 40.7668555,4.76866211 C40.6946676,4.56563375 40.5672128,4.40434142 40.3844873,4.28478027 C40.2017618,4.16521913 39.9727943,4.10543945 39.6975781,4.10543945 C39.3817562,4.10543945 39.0997766,4.1821379 38.8516309,4.33553711 C38.6034851,4.48893631 38.4218902,4.72015959 38.3068408,5.02921387 C38.1917914,5.33826815 38.1342676,5.7950751 38.1342676,6.39964844 L38.1342676,10 L36.2325781,10 L36.2325781,0.0787304687 L38.1342676,0.0787304687 Z M44.7055859,1.83830078 L44.7055859,0.0787304687 L46.6072754,0.0787304687 L46.6072754,1.83830078 L44.7055859,1.83830078 Z M44.7055859,10 L44.7055859,2.81283203 L46.6072754,2.81283203 L46.6072754,10 L44.7055859,10 Z M48.5563379,10 L48.5563379,0.0787304687 L50.4580273,0.0787304687 L50.4580273,10 L48.5563379,10 Z M52.4273926,10 L52.4273926,0.0787304687 L54.4305957,0.0787304687 L54.4305957,3.98362305 L58.355791,3.98362305 L58.355791,0.0787304687 L60.3589941,0.0787304687 L60.3589941,10 L58.355791,10 L58.355791,5.66198242 L54.4305957,5.66198242 L54.4305957,10 L52.4273926,10 Z M66.5783984,7.71255859 L68.4733203,8.03063477 C68.2296863,8.72544293 67.8450661,9.25443666 67.3194482,9.61763184 C66.7938304,9.98082701 66.1362539,10.1624219 65.3466992,10.1624219 C64.0969469,10.1624219 63.1720538,9.75411541 62.5719922,8.93749023 C62.0982594,8.28328774 61.8613965,7.45765147 61.8613965,6.46055664 C61.8613965,5.26945694 62.172702,4.33666841 62.7953223,3.66216309 C63.4179426,2.98765776 64.2052296,2.65041016 65.157207,2.65041016 C66.2264897,2.65041016 67.0701727,3.00344862 67.6882813,3.70953613 C68.3063898,4.41562365 68.6019044,5.4972974 68.574834,6.95458984 L63.810459,6.95458984 C63.8239942,7.51855751 63.9773911,7.95731777 64.2706543,8.27088379 C64.5639175,8.58444981 64.929363,8.74123047 65.367002,8.74123047 C65.6647769,8.74123047 65.9151748,8.66002034 66.1182031,8.49759766 C66.3212315,8.33517497 66.4746284,8.0734979 66.5783984,7.71255859 Z M66.6866797,5.79056641 C66.6731445,5.24013397 66.5310267,4.82167624 66.2603223,4.53518066 C65.9896178,4.24868509 65.6602656,4.10543945 65.2722559,4.10543945 C64.8571757,4.10543945 64.5142885,4.25658052 64.243584,4.55886719 C63.9728795,4.86115386 63.8397851,5.27171616 63.8442969,5.79056641 L66.6866797,5.79056641 Z M71.5458008,5.00552734 L69.8200684,4.69421875 C70.0140732,3.99941059 70.3479371,3.48507979 70.8216699,3.15121094 C71.2954028,2.81734208 71.9992238,2.65041016 72.9331543,2.65041016 C73.7813617,2.65041016 74.412996,2.75079489 74.8280762,2.95156738 C75.2431564,3.15233987 75.5352872,3.40724943 75.7044775,3.71630371 C75.8736678,4.02535799 75.9582617,4.59270095 75.9582617,5.41834961 L75.937959,7.63811523 C75.937959,8.26975902 75.9684128,8.73558932 76.0293213,9.03562012 C76.0902298,9.33565091 76.2041496,9.65710766 76.371084,10 L74.4896973,10 C74.4400681,9.87367124 74.3791605,9.68643679 74.3069727,9.43829102 C74.2753905,9.32549748 74.2528321,9.25105487 74.2392969,9.21496094 C73.9144515,9.53078283 73.5670526,9.76764569 73.1970898,9.92555664 C72.8271271,10.0834676 72.4323556,10.1624219 72.0127637,10.1624219 C71.2728381,10.1624219 70.6897043,9.9616524 70.2633447,9.56010742 C69.8369852,9.15856245 69.6238086,8.65099916 69.6238086,8.03740234 C69.6238086,7.63134563 69.7208096,7.26928382 69.9148145,6.95120605 C70.1088193,6.63312829 70.3806477,6.38949792 70.7303076,6.22030762 C71.0799676,6.05111732 71.5841471,5.90336001 72.2428613,5.77703125 C73.1316744,5.61009682 73.7475178,5.45444408 74.0904102,5.31006836 L74.0904102,5.12057617 C74.0904102,4.75512513 74.0001767,4.49457597 73.819707,4.3389209 C73.6392374,4.18326582 73.298606,4.10543945 72.7978027,4.10543945 C72.4594221,4.10543945 72.1954892,4.17198664 72.0059961,4.30508301 C71.816503,4.43817938 71.6631061,4.67165849 71.5458008,5.00552734 Z M74.0904102,6.54853516 C73.8467761,6.6297465 73.461028,6.72674748 72.9331543,6.83954102 C72.4052806,6.95233455 72.0601375,7.06287055 71.8977148,7.17115234 C71.6495691,7.34711025 71.525498,7.5704381 71.525498,7.84114258 C71.525498,8.10733532 71.6247549,8.33743067 71.8232715,8.53143555 C72.0217881,8.72544042 72.2744418,8.82244141 72.5812402,8.82244141 C72.9241326,8.82244141 73.2512289,8.70964957 73.5625391,8.4840625 C73.7926379,8.31261633 73.9437789,8.10282351 74.0159668,7.85467773 C74.065596,7.69225505 74.0904102,7.3832054 74.0904102,6.92751953 L74.0904102,6.54853516 Z M77.8328809,10 L77.8328809,0.0787304687 L79.7345703,0.0787304687 L79.7345703,10 L77.8328809,10 Z M84.9794434,2.81283203 L84.9794434,4.32876953 L83.6800684,4.32876953 L83.6800684,7.22529297 C83.6800684,7.81181934 83.6924755,8.15357862 83.71729,8.25058105 C83.7421046,8.34758349 83.7985005,8.4276657 83.8864795,8.49083008 C83.9744584,8.55399446 84.0816107,8.58557617 84.2079395,8.58557617 C84.3838974,8.58557617 84.6388069,8.52466858 84.9726758,8.40285156 L85.1350977,9.87818359 C84.692947,10.0676767 84.1921512,10.1624219 83.6326953,10.1624219 C83.289803,10.1624219 82.9807533,10.104898 82.7055371,9.98984863 C82.4303209,9.87479923 82.2284235,9.725914 82.0998389,9.54318848 C81.9712542,9.36046295 81.8821487,9.11344882 81.8325195,8.80213867 C81.7919139,8.58106335 81.7716113,8.13440766 81.7716113,7.4621582 L81.7716113,4.32876953 L80.8985938,4.32876953 L80.8985938,2.81283203 L81.7716113,2.81283203 L81.7716113,1.38487305 L83.6800684,0.274990234 L83.6800684,2.81283203 L84.9794434,2.81283203 Z M88.194043,0.0787304687 L88.194043,3.72645508 C88.8076398,3.00908821 89.5407868,2.65041016 90.3935059,2.65041016 C90.8311448,2.65041016 91.2259162,2.73162028 91.577832,2.89404297 C91.9297479,3.05646566 92.1948087,3.26400264 92.3730225,3.51666016 C92.5512362,3.76931767 92.6730514,4.04904143 92.7384717,4.35583984 C92.8038919,4.66263825 92.8366016,5.13861982 92.8366016,5.78379883 L92.8366016,10 L90.9349121,10 L90.9349121,6.20338867 C90.9349121,5.44992787 90.8988187,4.97169047 90.8266309,4.76866211 C90.754443,4.56563375 90.6269882,4.40434142 90.4442627,4.28478027 C90.2615372,4.16521913 90.0325697,4.10543945 89.7573535,4.10543945 C89.4415316,4.10543945 89.159552,4.1821379 88.9114063,4.33553711 C88.6632605,4.48893631 88.4816656,4.72015959 88.3666162,5.02921387 C88.2515668,5.33826815 88.194043,5.7950751 88.194043,6.39964844 L88.194043,10 L86.2923535,10 L86.2923535,0.0787304687 L88.194043,0.0787304687 Z" id="PhilHealth"></path>
                    <path d="M28.8398438,58.9609375 L28.8398438,55.8164062 L38.8691406,51.9980469 L38.8691406,54.2246094 L30.734375,57.3984375 L38.8691406,60.5625 L38.8691406,62.7792969 L28.8398438,58.9609375 Z M52.2441406,64 L51.0234375,60.484375 L45.7792969,60.484375 L44.5585938,64 L41.6777344,64 L46.6972656,50.2402344 L50.0957031,50.2402344 L55.0957031,64 L52.2441406,64 Z M48.3964844,52.359375 L48.3378906,52.5742188 C48.2727861,52.8085949 48.1946619,53.0755193 48.1035156,53.375 C48.0123693,53.6744807 47.4524791,55.3215996 46.4238281,58.3164062 L50.3789062,58.3164062 L49.0214844,54.3613281 L48.6015625,53.0332031 L48.3964844,52.359375 Z M69.7792969,54.5957031 C69.7792969,55.4811242 69.577476,56.2721319 69.1738281,56.96875 C68.7701803,57.6653681 68.1923866,58.2040997 67.4404297,58.5849609 C66.6884728,58.9658222 65.7949271,59.15625 64.7597656,59.15625 L61.3417969,59.15625 L61.3417969,64 L58.4609375,64 L58.4609375,50.2402344 L64.6425781,50.2402344 C66.2897218,50.2402344 67.5576127,50.6194624 68.4462891,51.3779297 C69.3349654,52.136397 69.7792969,53.2089774 69.7792969,54.5957031 Z M66.8789062,54.6445312 C66.8789062,53.1992115 66.0260502,52.4765625 64.3203125,52.4765625 L61.3417969,52.4765625 L61.3417969,56.9394531 L64.3984375,56.9394531 C65.1927123,56.9394531 65.8046854,56.742515 66.234375,56.3486328 C66.6640646,55.9547506 66.8789062,55.3867225 66.8789062,54.6445312 Z M73.3007812,64 L73.3007812,50.2402344 L76.1816406,50.2402344 L76.1816406,64 L73.3007812,64 Z M79.859375,62.7792969 L79.859375,60.5625 L87.984375,57.3984375 L79.859375,54.2246094 L79.859375,51.9980469 L89.8886719,55.8164062 L89.8886719,58.9609375 L79.859375,62.7792969 Z" id="&lt;API&gt;"></path>
                </g>
            </g>
        </g>
    </g>
</svg>