<?xml version="1.0" encoding="UTF-8" standalone="no"?>
<svg width="120px" height="59px" viewBox="0 0 120 59" version="1.1" xmlns="http://www.w3.org/2000/svg" xmlns:xlink="http://www.w3.org/1999/xlink">
    <!-- Generator: Sketch 41.2 (35397) - http://www.bohemiancoding.com/sketch -->
    <title>Group 3</title>
    <desc>Created with Sketch.</desc>
    <defs></defs>
    <g id="Client-Users" stroke="none" stroke-width="1" fill="none" fill-rule="evenodd">
        <g id="Client-Products" transform="translate(-439.000000, -307.000000)" fill="#FFFFFF">
            <g id="DMS-Copy-2" transform="translate(374.000000, 272.000000)">
                <g id="Group-3" transform="translate(65.000000, 35.000000)">
                    <path d="M44.4,25.03 L47.25,25.03 C47.0899992,23.8899943 46.7500026,22.8850043 46.23,22.015 C45.7099974,21.1449956 45.0600039,20.4200029 44.28,19.84 C43.4999961,19.2599971 42.610005,18.8200015 41.61,18.52 C40.609995,18.2199985 39.5500056,18.07 38.43,18.07 C36.7899918,18.07 35.3350063,18.364997 34.065,18.955 C32.7949936,19.5450029 31.7350042,20.3499949 30.885,21.37 C30.0349957,22.3900051 29.3900022,23.5849931 28.95,24.955 C28.5099978,26.3250068 28.29,27.7899922 28.29,29.35 C28.29,30.9100078 28.4949979,32.3699932 28.905,33.73 C29.315002,35.0900068 29.9299959,36.269995 30.75,37.27 C31.5700041,38.270005 32.5999938,39.0549971 33.84,39.625 C35.0800062,40.1950028 36.5299917,40.48 38.19,40.48 C40.9300137,40.48 43.0899921,39.7300075 44.67,38.23 C46.2500079,36.7299925 47.1799986,34.6300135 47.46,31.93 L44.61,31.93 C44.5499997,32.8100044 44.3700015,33.6299962 44.07,34.39 C43.7699985,35.1500038 43.3550026,35.8049972 42.825,36.355 C42.2949973,36.9050027 41.6650036,37.3349984 40.935,37.645 C40.2049963,37.9550015 39.3700047,38.11 38.43,38.11 C37.1499936,38.11 36.0500046,37.8700024 35.13,37.39 C34.2099954,36.9099976 33.4550029,36.265004 32.865,35.455 C32.274997,34.6449959 31.8400014,33.6950054 31.56,32.605 C31.2799986,31.5149945 31.14,30.3600061 31.14,29.14 C31.14,28.0199944 31.2799986,26.9400052 31.56,25.9 C31.8400014,24.8599948 32.274997,23.935004 32.865,23.125 C33.4550029,22.3149959 34.2049954,21.6700024 35.115,21.19 C36.0250045,20.7099976 37.1199936,20.47 38.4,20.47 C39.9000075,20.47 41.1949945,20.8499962 42.285,21.61 C43.3750054,22.3700038 44.0799984,23.5099924 44.4,25.03 Z M51.105,18.58 L51.105,40 L53.655,40 L53.655,18.58 L51.105,18.58 Z M71.7299999,39.94 C71.2899977,40.2000013 70.6800038,40.33 69.8999999,40.33 C69.2399966,40.33 68.7150019,40.1450018 68.3249999,39.775 C67.934998,39.4049981 67.7399999,38.8000042 67.7399999,37.96 C67.0399964,38.8000042 66.2250046,39.4049981 65.2949999,39.775 C64.3649953,40.1450018 63.3600053,40.33 62.2799999,40.33 C61.5799964,40.33 60.9150031,40.2500008 60.2849999,40.09 C59.6549968,39.9299992 59.1100022,39.6800017 58.6499999,39.34 C58.1899976,38.9999983 57.8250013,38.5550027 57.5549999,38.005 C57.2849986,37.4549972 57.1499999,36.7900039 57.1499999,36.01 C57.1499999,35.1299956 57.2999984,34.4100028 57.5999999,33.85 C57.9000014,33.2899972 58.2949975,32.8350017 58.7849999,32.485 C59.2750024,32.1349982 59.8349968,31.8700009 60.4649999,31.69 C61.0950031,31.5099991 61.7399966,31.3600006 62.3999999,31.24 C63.1000034,31.0999993 63.7649968,30.9950003 64.3949999,30.925 C65.0250031,30.8549996 65.5799975,30.7550006 66.0599999,30.625 C66.5400023,30.4949993 66.9199985,30.3050012 67.1999999,30.055 C67.4800013,29.8049987 67.6199999,29.4400024 67.6199999,28.96 C67.6199999,28.3999972 67.515001,27.9500017 67.3049999,27.61 C67.0949989,27.2699983 66.8250016,27.0100009 66.4949999,26.83 C66.1649983,26.6499991 65.795002,26.5300003 65.3849999,26.47 C64.9749979,26.4099997 64.5700019,26.38 64.1699999,26.38 C63.0899945,26.38 62.1900035,26.5849979 61.4699999,26.995 C60.7499963,27.405002 60.3600002,28.1799943 60.2999999,29.32 L57.7499999,29.32 C57.7900001,28.3599952 57.9899981,27.5500033 58.3499999,26.89 C58.7100017,26.2299967 59.1899969,25.695002 59.7899999,25.285 C60.3900029,24.8749979 61.0749961,24.5800009 61.8449999,24.4 C62.6150038,24.2199991 63.4399955,24.13 64.3199999,24.13 C65.0200034,24.13 65.7149965,24.1799995 66.4049999,24.28 C67.0950034,24.3800005 67.7199971,24.5849984 68.2799999,24.895 C68.8400027,25.2050015 69.2899982,25.6399972 69.6299999,26.2 C69.9700016,26.7600028 70.1399999,27.4899955 70.1399999,28.39 L70.1399999,36.37 C70.1399999,36.970003 70.1749996,37.4099986 70.2449999,37.69 C70.3150003,37.9700014 70.5499979,38.11 70.9499999,38.11 C71.170001,38.11 71.4299984,38.0600005 71.7299999,37.96 L71.7299999,39.94 Z M67.5899999,31.99 C67.2699983,32.2300012 66.8500025,32.4049994 66.3299999,32.515 C65.8099973,32.6250005 65.2650028,32.7149996 64.6949999,32.785 C64.1249971,32.8550003 63.5500028,32.9349995 62.9699999,33.025 C62.389997,33.1150004 61.8700022,33.259999 61.4099999,33.46 C60.9499976,33.660001 60.5750014,33.9449981 60.2849999,34.315 C59.9949985,34.6850018 59.8499999,35.1899968 59.8499999,35.83 C59.8499999,36.2500021 59.9349991,36.6049985 60.1049999,36.895 C60.2750008,37.1850014 60.4949986,37.4199991 60.7649999,37.6 C61.0350013,37.7800009 61.3499981,37.9099996 61.7099999,37.99 C62.0700017,38.0700004 62.4499979,38.11 62.8499999,38.11 C63.6900041,38.11 64.4099969,37.9950011 65.0099999,37.765 C65.6100029,37.5349988 66.099998,37.2450017 66.4799999,36.895 C66.8600018,36.5449982 67.139999,36.165002 67.3199999,35.755 C67.5000008,35.3449979 67.5899999,34.9600018 67.5899999,34.6 L67.5899999,31.99 Z M77.1749999,21.7 L77.1749999,18.58 L74.6249999,18.58 L74.6249999,21.7 L77.1749999,21.7 Z M74.6249999,24.49 L74.6249999,40 L77.1749999,40 L77.1749999,24.49 L74.6249999,24.49 Z M81.5099999,24.49 L81.5099999,40 L84.0599999,40 L84.0599999,30.34 C84.0599999,30.0399985 84.1349991,29.6650022 84.2849999,29.215 C84.4350006,28.7649977 84.6749982,28.3300021 85.0049999,27.91 C85.3350015,27.4899979 85.7649972,27.1300015 86.2949999,26.83 C86.8250025,26.5299985 87.4599962,26.38 88.1999999,26.38 C88.7800028,26.38 89.254998,26.4649991 89.6249999,26.635 C89.9950017,26.8050008 90.2899988,27.0449984 90.5099999,27.355 C90.730001,27.6650015 90.8849994,28.0299979 90.9749999,28.45 C91.0650003,28.8700021 91.1099999,29.3299975 91.1099999,29.83 L91.1099999,40 L93.6599999,40 L93.6599999,30.34 C93.6599999,29.139994 94.0199963,28.1800036 94.7399999,27.46 C95.4600035,26.7399964 96.4499936,26.38 97.7099999,26.38 C98.330003,26.38 98.8349979,26.4699991 99.2249999,26.65 C99.6150018,26.8300009 99.9199988,27.0749984 100.14,27.385 C100.360001,27.6950015 100.509999,28.0599979 100.59,28.48 C100.67,28.9000021 100.71,29.3499976 100.71,29.83 L100.71,40 L103.26,40 L103.26,28.63 C103.26,27.829996 103.135001,27.1450028 102.885,26.575 C102.634999,26.0049971 102.285002,25.5400018 101.835,25.18 C101.384998,24.8199982 100.845003,24.5550008 100.215,24.385 C99.5849967,24.2149991 98.8800038,24.13 98.0999999,24.13 C97.0799948,24.13 96.1450041,24.3599977 95.2949999,24.82 C94.4449956,25.2800023 93.7600025,25.9299958 93.2399999,26.77 C92.9199983,25.8099952 92.3700038,25.130002 91.5899999,24.73 C90.809996,24.329998 89.9400047,24.13 88.9799999,24.13 C86.799989,24.13 85.1300057,25.0099912 83.9699999,26.77 L83.9099999,26.77 L83.9099999,24.49 L81.5099999,24.49 Z M109.035,35.11 L106.485,35.11 C106.525,36.0700048 106.724998,36.8849966 107.085,37.555 C107.445002,38.2250033 107.924997,38.7649979 108.525,39.175 C109.125003,39.585002 109.814996,39.8799991 110.595,40.06 C111.375004,40.2400009 112.194996,40.33 113.055,40.33 C113.835004,40.33 114.619996,40.2550007 115.41,40.105 C116.200004,39.9549992 116.909997,39.6900019 117.54,39.31 C118.170003,38.9299981 118.679998,38.4300031 119.07,37.81 C119.460002,37.1899969 119.655,36.4100047 119.655,35.47 C119.655,34.7299963 119.510001,34.1100025 119.22,33.61 C118.929998,33.1099975 118.550002,32.6950016 118.08,32.365 C117.609998,32.0349983 117.070003,31.770001 116.46,31.57 C115.849997,31.369999 115.225003,31.2000007 114.585,31.06 C113.984997,30.9199993 113.385003,30.7850006 112.785,30.655 C112.184997,30.5249993 111.645002,30.3650009 111.165,30.175 C110.684997,29.984999 110.290001,29.7450014 109.98,29.455 C109.669998,29.1649985 109.515,28.8000022 109.515,28.36 C109.515,27.959998 109.614999,27.6350012 109.815,27.385 C110.015001,27.1349987 110.274998,26.9350007 110.595,26.785 C110.915001,26.6349992 111.269998,26.5300003 111.66,26.47 C112.050002,26.4099997 112.434998,26.38 112.815,26.38 C113.235002,26.38 113.649998,26.4249995 114.06,26.515 C114.470002,26.6050004 114.844998,26.749999 115.185,26.95 C115.525002,27.150001 115.804999,27.4149983 116.025,27.745 C116.245001,28.0750016 116.375,28.4899975 116.415,28.99 L118.965,28.99 C118.905,28.0499953 118.705002,27.2650031 118.365,26.635 C118.024998,26.0049968 117.570003,25.5050018 117,25.135 C116.429997,24.7649981 115.775004,24.5050007 115.035,24.355 C114.294996,24.2049992 113.485004,24.13 112.605,24.13 C111.924996,24.13 111.240003,24.2149991 110.55,24.385 C109.859996,24.5550008 109.240003,24.8149982 108.69,25.165 C108.139997,25.5150017 107.690002,25.9699972 107.34,26.53 C106.989998,27.0900028 106.815,27.7599961 106.815,28.54 C106.815,29.540005 107.064997,30.3199972 107.565,30.88 C108.065002,31.4400028 108.689996,31.8749984 109.44,32.185 C110.190004,32.4950015 111.004995,32.7349991 111.885,32.905 C112.765004,33.0750008 113.579996,33.2649989 114.33,33.475 C115.080004,33.685001 115.704997,33.9599983 116.205,34.3 C116.705002,34.6400017 116.955,35.1399967 116.955,35.8 C116.955,36.2800024 116.835001,36.6749984 116.595,36.985 C116.354999,37.2950015 116.050002,37.5299992 115.68,37.69 C115.309998,37.8500008 114.905002,37.9599997 114.465,38.02 C114.024998,38.0800003 113.605002,38.11 113.205,38.11 C112.684997,38.11 112.180002,38.0600005 111.69,37.96 C111.199997,37.8599995 110.760002,37.6950011 110.37,37.465 C109.979998,37.2349988 109.665001,36.9250019 109.425,36.535 C109.184999,36.144998 109.055,35.6700028 109.035,35.11 Z" id="Claims"></path>
                    <path d="M0,23.267907 C0,20.910807 1.91387013,19 4.26790698,19 L17.732093,19 C20.089193,19 22,20.9138701 22,23.267907 L22,36.732093 C22,39.089193 20.0861299,41 17.732093,41 L4.26790698,41 C1.91080704,41 0,39.0861299 0,36.732093 L0,23.267907 Z M17.145568,32.338336 L17.027296,33.402784 C16.9747304,33.7707432 16.8301772,34.0467084 16.593632,34.230688 C16.4096524,34.3883848 15.6868863,34.730056 14.425312,35.255712 C13.8208076,35.4922572 13.2031712,35.7156576 12.572384,35.92592 C11.9415968,36.1361824 11.3239604,36.3267298 10.719456,36.497568 C10.1149516,36.6684062 9.54987996,36.7998182 9.024224,36.891808 C8.49856804,36.9837978 8.03862597,37.029792 7.644384,37.029792 C6.54050648,37.029792 5.43664552,36.5961323 4.332768,35.7288 C3.78082924,35.3082752 3.37345198,34.8943274 3.110624,34.486944 C2.84779602,34.0795606 2.7032428,33.6590422 2.67696,33.225376 C2.6506772,32.7917098 2.72952441,32.3317678 2.913504,31.845536 C3.09748359,31.3593042 3.36030762,30.8139444 3.701984,30.20944 C4.28020556,29.2106937 4.81242424,28.382798 5.298656,27.725728 C5.78488776,27.068658 6.21197683,26.5692924 6.579936,26.227616 C7.28957155,25.5968288 8.38029131,25.0580396 9.852128,24.611232 C11.3239647,24.1644244 12.8483441,23.941024 14.425312,23.941024 C16.0285627,23.941024 17.093,24.138142 17.618656,24.532384 C18.144312,24.9003432 18.407136,25.6099681 18.407136,26.66128 C18.407136,27.6863091 18.1048884,28.4747812 17.500384,29.02672 C16.9221624,29.5786588 15.8708663,30.0254596 14.346464,30.367136 C13.5842629,30.5511156 12.5986727,30.741663 11.389664,30.938784 C10.1806553,31.135905 8.70884067,31.3527348 6.974176,31.58928 C7.13187279,32.9034199 7.84149769,33.9678573 9.103072,34.782624 C11.836483,34.2832508 14.5172882,33.4684963 17.145568,32.338336 Z M14.385888,27.094944 L14.385888,25.439136 L10.246368,25.951648 C9.24762167,27.1869395 8.30145513,28.5667657 7.40784,30.091168 C8.90595949,29.9860368 10.1083795,29.8546248 11.015136,29.696928 C11.9218925,29.5392312 12.6249468,29.3421132 13.12432,29.105568 C13.6236932,28.8690228 13.9587938,28.5930576 14.129632,28.277664 C14.3004702,27.9622704 14.385888,27.5680344 14.385888,27.094944 Z" id="Combined-Shape"></path>
                    <path d="M27.0083691,10 L27.0083691,0.0787304687 L30.2229688,0.0787304687 C31.4411389,0.0787304687 32.2351935,0.128358879 32.6051563,0.227617187 C33.1736357,0.376504651 33.6496172,0.700217234 34.0331152,1.19876465 C34.4166132,1.69731206 34.6083594,2.34135347 34.6083594,3.1309082 C34.6083594,3.73999328 34.4978234,4.25206824 34.276748,4.66714844 C34.0556727,5.08222864 33.774821,5.40819706 33.4341846,5.64506348 C33.0935481,5.8819299 32.7472772,6.03871055 32.3953613,6.11541016 C31.9171167,6.21015672 31.2245748,6.2575293 30.3177148,6.2575293 L29.0115723,6.2575293 L29.0115723,10 L27.0083691,10 Z M29.0115723,1.75708984 L29.0115723,4.57240234 L30.1079199,4.57240234 C30.8974747,4.57240234 31.4253405,4.5205181 31.6915332,4.41674805 C31.9577259,4.312978 32.1663908,4.15055775 32.3175342,3.92948242 C32.4686775,3.7084071 32.544248,3.4512417 32.544248,3.15797852 C32.544248,2.79703921 32.4382237,2.49926875 32.2261719,2.2646582 C32.01412,2.03004766 31.7456755,1.88341826 31.4208301,1.82476562 C31.1817078,1.77964821 30.7012145,1.75708984 29.9793359,1.75708984 L29.0115723,1.75708984 Z M38.1342676,0.0787304687 L38.1342676,3.72645508 C38.7478644,3.00908821 39.4810114,2.65041016 40.3337305,2.65041016 C40.7713694,2.65041016 41.1661408,2.73162028 41.5180566,2.89404297 C41.8699725,3.05646566 42.1350333,3.26400264 42.3132471,3.51666016 C42.4914609,3.76931767 42.613276,4.04904143 42.6786963,4.35583984 C42.7441165,4.66263825 42.7768262,5.13861982 42.7768262,5.78379883 L42.7768262,10 L40.8751367,10 L40.8751367,6.20338867 C40.8751367,5.44992787 40.8390433,4.97169047 40.7668555,4.76866211 C40.6946676,4.56563375 40.5672128,4.40434142 40.3844873,4.28478027 C40.2017618,4.16521913 39.9727943,4.10543945 39.6975781,4.10543945 C39.3817562,4.10543945 39.0997766,4.1821379 38.8516309,4.33553711 C38.6034851,4.48893631 38.4218902,4.72015959 38.3068408,5.02921387 C38.1917914,5.33826815 38.1342676,5.7950751 38.1342676,6.39964844 L38.1342676,10 L36.2325781,10 L36.2325781,0.0787304687 L38.1342676,0.0787304687 Z M44.7055859,1.83830078 L44.7055859,0.0787304687 L46.6072754,0.0787304687 L46.6072754,1.83830078 L44.7055859,1.83830078 Z M44.7055859,10 L44.7055859,2.81283203 L46.6072754,2.81283203 L46.6072754,10 L44.7055859,10 Z M48.5563379,10 L48.5563379,0.0787304687 L50.4580273,0.0787304687 L50.4580273,10 L48.5563379,10 Z M52.4273926,10 L52.4273926,0.0787304687 L54.4305957,0.0787304687 L54.4305957,3.98362305 L58.355791,3.98362305 L58.355791,0.0787304687 L60.3589941,0.0787304687 L60.3589941,10 L58.355791,10 L58.355791,5.66198242 L54.4305957,5.66198242 L54.4305957,10 L52.4273926,10 Z M66.5783984,7.71255859 L68.4733203,8.03063477 C68.2296863,8.72544293 67.8450661,9.25443666 67.3194482,9.61763184 C66.7938304,9.98082701 66.1362539,10.1624219 65.3466992,10.1624219 C64.0969469,10.1624219 63.1720538,9.75411541 62.5719922,8.93749023 C62.0982594,8.28328774 61.8613965,7.45765147 61.8613965,6.46055664 C61.8613965,5.26945694 62.172702,4.33666841 62.7953223,3.66216309 C63.4179426,2.98765776 64.2052296,2.65041016 65.157207,2.65041016 C66.2264897,2.65041016 67.0701727,3.00344862 67.6882813,3.70953613 C68.3063898,4.41562365 68.6019044,5.4972974 68.574834,6.95458984 L63.810459,6.95458984 C63.8239942,7.51855751 63.9773911,7.95731777 64.2706543,8.27088379 C64.5639175,8.58444981 64.929363,8.74123047 65.367002,8.74123047 C65.6647769,8.74123047 65.9151748,8.66002034 66.1182031,8.49759766 C66.3212315,8.33517497 66.4746284,8.0734979 66.5783984,7.71255859 Z M66.6866797,5.79056641 C66.6731445,5.24013397 66.5310267,4.82167624 66.2603223,4.53518066 C65.9896178,4.24868509 65.6602656,4.10543945 65.2722559,4.10543945 C64.8571757,4.10543945 64.5142885,4.25658052 64.243584,4.55886719 C63.9728795,4.86115386 63.8397851,5.27171616 63.8442969,5.79056641 L66.6866797,5.79056641 Z M71.5458008,5.00552734 L69.8200684,4.69421875 C70.0140732,3.99941059 70.3479371,3.48507979 70.8216699,3.15121094 C71.2954028,2.81734208 71.9992238,2.65041016 72.9331543,2.65041016 C73.7813617,2.65041016 74.412996,2.75079489 74.8280762,2.95156738 C75.2431564,3.15233987 75.5352872,3.40724943 75.7044775,3.71630371 C75.8736678,4.02535799 75.9582617,4.59270095 75.9582617,5.41834961 L75.937959,7.63811523 C75.937959,8.26975902 75.9684128,8.73558932 76.0293213,9.03562012 C76.0902298,9.33565091 76.2041496,9.65710766 76.371084,10 L74.4896973,10 C74.4400681,9.87367124 74.3791605,9.68643679 74.3069727,9.43829102 C74.2753905,9.32549748 74.2528321,9.25105487 74.2392969,9.21496094 C73.9144515,9.53078283 73.5670526,9.76764569 73.1970898,9.92555664 C72.8271271,10.0834676 72.4323556,10.1624219 72.0127637,10.1624219 C71.2728381,10.1624219 70.6897043,9.9616524 70.2633447,9.56010742 C69.8369852,9.15856245 69.6238086,8.65099916 69.6238086,8.03740234 C69.6238086,7.63134563 69.7208096,7.26928382 69.9148145,6.95120605 C70.1088193,6.63312829 70.3806477,6.38949792 70.7303076,6.22030762 C71.0799676,6.05111732 71.5841471,5.90336001 72.2428613,5.77703125 C73.1316744,5.61009682 73.7475178,5.45444408 74.0904102,5.31006836 L74.0904102,5.12057617 C74.0904102,4.75512513 74.0001767,4.49457597 73.819707,4.3389209 C73.6392374,4.18326582 73.298606,4.10543945 72.7978027,4.10543945 C72.4594221,4.10543945 72.1954892,4.17198664 72.0059961,4.30508301 C71.816503,4.43817938 71.6631061,4.67165849 71.5458008,5.00552734 Z M74.0904102,6.54853516 C73.8467761,6.6297465 73.461028,6.72674748 72.9331543,6.83954102 C72.4052806,6.95233455 72.0601375,7.06287055 71.8977148,7.17115234 C71.6495691,7.34711025 71.525498,7.5704381 71.525498,7.84114258 C71.525498,8.10733532 71.6247549,8.33743067 71.8232715,8.53143555 C72.0217881,8.72544042 72.2744418,8.82244141 72.5812402,8.82244141 C72.9241326,8.82244141 73.2512289,8.70964957 73.5625391,8.4840625 C73.7926379,8.31261633 73.9437789,8.10282351 74.0159668,7.85467773 C74.065596,7.69225505 74.0904102,7.3832054 74.0904102,6.92751953 L74.0904102,6.54853516 Z M77.8328809,10 L77.8328809,0.0787304687 L79.7345703,0.0787304687 L79.7345703,10 L77.8328809,10 Z M84.9794434,2.81283203 L84.9794434,4.32876953 L83.6800684,4.32876953 L83.6800684,7.22529297 C83.6800684,7.81181934 83.6924755,8.15357862 83.71729,8.25058105 C83.7421046,8.34758349 83.7985005,8.4276657 83.8864795,8.49083008 C83.9744584,8.55399446 84.0816107,8.58557617 84.2079395,8.58557617 C84.3838974,8.58557617 84.6388069,8.52466858 84.9726758,8.40285156 L85.1350977,9.87818359 C84.692947,10.0676767 84.1921512,10.1624219 83.6326953,10.1624219 C83.289803,10.1624219 82.9807533,10.104898 82.7055371,9.98984863 C82.4303209,9.87479923 82.2284235,9.725914 82.0998389,9.54318848 C81.9712542,9.36046295 81.8821487,9.11344882 81.8325195,8.80213867 C81.7919139,8.58106335 81.7716113,8.13440766 81.7716113,7.4621582 L81.7716113,4.32876953 L80.8985938,4.32876953 L80.8985938,2.81283203 L81.7716113,2.81283203 L81.7716113,1.38487305 L83.6800684,0.274990234 L83.6800684,2.81283203 L84.9794434,2.81283203 Z M88.194043,0.0787304687 L88.194043,3.72645508 C88.8076398,3.00908821 89.5407868,2.65041016 90.3935059,2.65041016 C90.8311448,2.65041016 91.2259162,2.73162028 91.577832,2.89404297 C91.9297479,3.05646566 92.1948087,3.26400264 92.3730225,3.51666016 C92.5512362,3.76931767 92.6730514,4.04904143 92.7384717,4.35583984 C92.8038919,4.66263825 92.8366016,5.13861982 92.8366016,5.78379883 L92.8366016,10 L90.9349121,10 L90.9349121,6.20338867 C90.9349121,5.44992787 90.8988187,4.97169047 90.8266309,4.76866211 C90.754443,4.56563375 90.6269882,4.40434142 90.4442627,4.28478027 C90.2615372,4.16521913 90.0325697,4.10543945 89.7573535,4.10543945 C89.4415316,4.10543945 89.159552,4.1821379 88.9114063,4.33553711 C88.6632605,4.48893631 88.4816656,4.72015959 88.3666162,5.02921387 C88.2515668,5.33826815 88.194043,5.7950751 88.194043,6.39964844 L88.194043,10 L86.2923535,10 L86.2923535,0.0787304687 L88.194043,0.0787304687 Z" id="PhilHealth"></path>
                    <path d="M2.48339844,52.5136719 C2.48339844,51.3255149 2.80240566,50.3953484 3.44042969,49.7231445 C4.07845371,49.0509406 4.90201318,48.7148438 5.91113281,48.7148438 C6.57194341,48.7148438 7.16764058,48.8727198 7.69824219,49.1884766 C8.2288438,49.5042333 8.63329939,49.9444959 8.91162109,50.5092773 C9.1899428,51.0740588 9.32910156,51.7145146 9.32910156,52.4306641 C9.32910156,53.1565792 9.18261865,53.8059867 8.88964844,54.3789062 C8.59667822,54.9518258 8.18164331,55.385578 7.64453125,55.6801758 C7.10741919,55.9747736 6.5279979,56.1220703 5.90625,56.1220703 C5.23241851,56.1220703 4.63021099,55.9593115 4.09960938,55.6337891 C3.56900776,55.3082666 3.16699355,54.8639351 2.89355469,54.3007812 C2.62011582,53.7376274 2.48339844,53.1419302 2.48339844,52.5136719 Z M3.45996094,52.5283203 C3.45996094,53.3909548 3.69189221,54.0704728 4.15576172,54.5668945 C4.61963123,55.0633163 5.2014939,55.3115234 5.90136719,55.3115234 C6.61426138,55.3115234 7.20100681,55.0608749 7.66162109,54.5595703 C8.12223538,54.0582657 8.35253906,53.3470098 8.35253906,52.4257812 C8.35253906,51.843096 8.25407,51.3344748 8.05712891,50.8999023 C7.86018782,50.4653299 7.57210476,50.1284192 7.19287109,49.8891602 C6.81363743,49.6499011 6.38802319,49.5302734 5.91601562,49.5302734 C5.24543936,49.5302734 4.66845945,49.7605771 4.18505859,50.2211914 C3.70165774,50.6818057 3.45996094,51.450841 3.45996094,52.5283203 Z M10.4375,56 L10.4375,50.8144531 L11.2285156,50.8144531 L11.2285156,51.5517578 C11.6093769,50.9820935 12.1595016,50.6972656 12.8789062,50.6972656 C13.1914078,50.6972656 13.4786771,50.7534174 13.7407227,50.8657227 C14.0027682,50.9780279 14.1988926,51.1253246 14.3291016,51.3076172 C14.4593105,51.4899098 14.5504555,51.706379 14.6025391,51.9570312 C14.6350913,52.1197925 14.6513672,52.4046204 14.6513672,52.8115234 L14.6513672,56 L13.7724609,56 L13.7724609,52.8457031 C13.7724609,52.4876284 13.7382816,52.2198902 13.6699219,52.0424805 C13.6015622,51.8650707 13.4803069,51.7234706 13.3061523,51.6176758 C13.1319978,51.511881 12.9277355,51.4589844 12.6933594,51.4589844 C12.3190085,51.4589844 11.9959323,51.5777983 11.7241211,51.8154297 C11.4523098,52.0530611 11.3164062,52.5039029 11.3164062,53.1679688 L11.3164062,56 L10.4375,56 Z M15.9794922,56 L15.9794922,48.8417969 L16.8583984,48.8417969 L16.8583984,56 L15.9794922,56 Z M18.2255859,49.8525391 L18.2255859,48.8417969 L19.1044922,48.8417969 L19.1044922,49.8525391 L18.2255859,49.8525391 Z M18.2255859,56 L18.2255859,50.8144531 L19.1044922,50.8144531 L19.1044922,56 L18.2255859,56 Z M20.4423828,56 L20.4423828,50.8144531 L21.2333984,50.8144531 L21.2333984,51.5517578 C21.6142597,50.9820935 22.1643844,50.6972656 22.8837891,50.6972656 C23.1962906,50.6972656 23.4835599,50.7534174 23.7456055,50.8657227 C24.007651,50.9780279 24.2037754,51.1253246 24.3339844,51.3076172 C24.4641934,51.4899098 24.5553383,51.706379 24.6074219,51.9570312 C24.6399741,52.1197925 24.65625,52.4046204 24.65625,52.8115234 L24.65625,56 L23.7773438,56 L23.7773438,52.8457031 C23.7773438,52.4876284 23.7431644,52.2198902 23.6748047,52.0424805 C23.606445,51.8650707 23.4851897,51.7234706 23.3110352,51.6176758 C23.1368806,51.511881 22.9326184,51.4589844 22.6982422,51.4589844 C22.3238914,51.4589844 22.0008152,51.5777983 21.7290039,51.8154297 C21.4571927,52.0530611 21.3212891,52.5039029 21.3212891,53.1679688 L21.3212891,56 L20.4423828,56 Z M29.5537109,54.3300781 L30.4619141,54.4423828 C30.3186842,54.9729844 30.0533874,55.3847642 29.6660156,55.6777344 C29.2786439,55.9707046 28.7838572,56.1171875 28.1816406,56.1171875 C27.4231733,56.1171875 26.8217796,55.8836286 26.3774414,55.4165039 C25.9331032,54.9493792 25.7109375,54.294275 25.7109375,53.4511719 C25.7109375,52.5787717 25.9355446,51.9016951 26.3847656,51.4199219 C26.8339866,50.9381486 27.4166631,50.6972656 28.1328125,50.6972656 C28.8261753,50.6972656 29.3925759,50.9332659 29.8320312,51.4052734 C30.2714866,51.877281 30.4912109,52.5413369 30.4912109,53.3974609 C30.4912109,53.4495445 30.4895833,53.5276688 30.4863281,53.6318359 L26.6191406,53.6318359 C26.6516929,54.2015002 26.8128241,54.6376938 27.1025391,54.9404297 C27.3922541,55.2431656 27.7535786,55.3945312 28.1865234,55.3945312 C28.5087907,55.3945312 28.783853,55.3098967 29.0117188,55.140625 C29.2395845,54.9713533 29.4202467,54.7011737 29.5537109,54.3300781 Z M26.6679688,52.9091797 L29.5634766,52.9091797 C29.5244139,52.4729796 29.4137379,52.1458344 29.2314453,51.9277344 C28.951496,51.589191 28.5885439,51.4199219 28.1425781,51.4199219 C27.7389303,51.4199219 27.3995782,51.5550117 27.1245117,51.8251953 C26.8494452,52.095379 26.6972658,52.4567035 26.6679688,52.9091797 Z M39.5634766,53.4902344 L40.5107422,53.7294922 C40.3121735,54.5074909 39.9549179,55.1007467 39.4389648,55.5092773 C38.9230117,55.917808 38.2923214,56.1220703 37.546875,56.1220703 C36.7753868,56.1220703 36.1479516,55.9650081 35.6645508,55.6508789 C35.1811499,55.3367497 34.8133151,54.8818389 34.5610352,54.2861328 C34.3087552,53.6904267 34.1826172,53.0507847 34.1826172,52.3671875 C34.1826172,51.6217411 34.3250311,50.9715197 34.6098633,50.4165039 C34.8946954,49.8614881 35.2999648,49.4399428 35.8256836,49.1518555 C36.3514024,48.8637681 36.9300099,48.7197266 37.5615234,48.7197266 C38.2776729,48.7197266 38.8798804,48.9020164 39.3681641,49.2666016 C39.8564478,49.6311867 40.1966136,50.1438769 40.3886719,50.8046875 L39.4560547,51.0244141 C39.2900382,50.5035781 39.0491552,50.1243501 38.7333984,49.8867188 C38.4176417,49.6490874 38.0205102,49.5302734 37.5419922,49.5302734 C36.9918592,49.5302734 36.5320656,49.6621081 36.1625977,49.9257812 C35.7931297,50.1894544 35.5335294,50.5434548 35.3837891,50.987793 C35.2340487,51.4321311 35.1591797,51.8902971 35.1591797,52.3623047 C35.1591797,52.9710317 35.2478832,53.5024391 35.425293,53.956543 C35.6027027,54.4106468 35.8785789,54.7499989 36.2529297,54.9746094 C36.6272805,55.1992199 37.0325499,55.3115234 37.46875,55.3115234 C37.9993516,55.3115234 38.4485659,55.1585302 38.8164062,54.8525391 C39.1842466,54.5465479 39.4332676,54.0924509 39.5634766,53.4902344 Z M41.5458984,56 L41.5458984,48.8417969 L42.4248047,48.8417969 L42.4248047,56 L41.5458984,56 Z M47.1708984,55.3603516 C46.845376,55.6370457 46.5320653,55.8323562 46.230957,55.9462891 C45.9298488,56.0602219 45.6067726,56.1171875 45.2617188,56.1171875 C44.6920544,56.1171875 44.2542333,55.9780287 43.9482422,55.699707 C43.6422511,55.4213853 43.4892578,55.0657574 43.4892578,54.6328125 C43.4892578,54.378905 43.5470372,54.1469737 43.6625977,53.9370117 C43.7781581,53.7270497 43.9295238,53.5585944 44.1166992,53.4316406 C44.3038746,53.3046869 44.5146473,53.2086592 44.7490234,53.1435547 C44.9215503,53.0979815 45.1819644,53.0540367 45.5302734,53.0117188 C46.2399124,52.9270829 46.7623681,52.8261725 47.0976562,52.7089844 C47.1009115,52.5885411 47.1025391,52.5120444 47.1025391,52.4794922 C47.1025391,52.1214175 47.0195321,51.8691414 46.8535156,51.7226562 C46.6289051,51.5240875 46.2952496,51.4248047 45.8525391,51.4248047 C45.4391255,51.4248047 45.1339528,51.4972323 44.9370117,51.6420898 C44.7400706,51.7869473 44.5944015,52.0432924 44.5,52.4111328 L43.640625,52.2939453 C43.7187504,51.9261049 43.8473298,51.6290701 44.0263672,51.402832 C44.2054045,51.1765939 44.464191,51.002442 44.8027344,50.8803711 C45.1412777,50.7583002 45.5335264,50.6972656 45.9794922,50.6972656 C46.4222027,50.6972656 46.7818997,50.7493484 47.0585938,50.8535156 C47.3352878,50.9576828 47.5387363,51.0887036 47.6689453,51.246582 C47.7991543,51.4044604 47.8902992,51.6038399 47.9423828,51.8447266 C47.9716798,51.9944669 47.9863281,52.2646465 47.9863281,52.6552734 L47.9863281,53.8271484 C47.9863281,54.6442098 48.0050454,55.160969 48.0424805,55.3774414 C48.0799156,55.5939138 48.1539708,55.8014313 48.2646484,56 L47.3466797,56 C47.2555334,55.8177074 47.1969402,55.6044934 47.1708984,55.3603516 Z M47.0976562,53.3974609 C46.7786442,53.5276699 46.3001334,53.6383459 45.6621094,53.7294922 C45.3007794,53.7815758 45.0452481,53.8401689 44.8955078,53.9052734 C44.7457675,53.9703779 44.6302087,54.0655918 44.5488281,54.190918 C44.4674475,54.3162441 44.4267578,54.4554029 44.4267578,54.6083984 C44.4267578,54.8427746 44.5154614,55.0380852 44.6928711,55.1943359 C44.8702808,55.3505867 45.1298811,55.4287109 45.4716797,55.4287109 C45.810223,55.4287109 46.1113268,55.3546557 46.375,55.206543 C46.6386732,55.0584302 46.8323562,54.8557956 46.9560547,54.5986328 C47.0504562,54.4000641 47.0976562,54.1070983 47.0976562,53.7197266 L47.0976562,53.3974609 Z M49.3535156,49.8525391 L49.3535156,48.8417969 L50.2324219,48.8417969 L50.2324219,49.8525391 L49.3535156,49.8525391 Z M49.3535156,56 L49.3535156,50.8144531 L50.2324219,50.8144531 L50.2324219,56 L49.3535156,56 Z M51.5703125,56 L51.5703125,50.8144531 L52.3564453,50.8144531 L52.3564453,51.5419922 C52.5192065,51.2880847 52.7356757,51.0838224 53.0058594,50.9291992 C53.276043,50.774576 53.5836571,50.6972656 53.9287109,50.6972656 C54.3128274,50.6972656 54.6277657,50.7770174 54.8735352,50.9365234 C55.1193046,51.0960294 55.2926427,51.319009 55.3935547,51.6054688 C55.803713,50.999997 56.3375618,50.6972656 56.9951172,50.6972656 C57.5094427,50.6972656 57.9049465,50.8396796 58.1816406,51.1245117 C58.4583347,51.4093439 58.5966797,51.8479788 58.5966797,52.4404297 L58.5966797,56 L57.7226562,56 L57.7226562,52.7333984 C57.7226562,52.3818342 57.6941735,52.1287443 57.637207,51.9741211 C57.5802406,51.8194979 57.4768888,51.6949875 57.3271484,51.6005859 C57.1774081,51.5061844 57.0016286,51.4589844 56.7998047,51.4589844 C56.4352195,51.4589844 56.1324882,51.5802397 55.8916016,51.8227539 C55.6507149,52.0652681 55.5302734,52.4534479 55.5302734,52.9873047 L55.5302734,56 L54.6513672,56 L54.6513672,52.6308594 C54.6513672,52.2402324 54.5797533,51.9472666 54.4365234,51.7519531 C54.2932936,51.5566396 54.0589209,51.4589844 53.7333984,51.4589844 C53.4860014,51.4589844 53.2573253,51.5240879 53.0473633,51.6542969 C52.8374013,51.7845059 52.6852218,51.9749336 52.5908203,52.2255859 C52.4964188,52.4762382 52.4492188,52.8375627 52.4492188,53.3095703 L52.4492188,56 L51.5703125,56 Z M59.5488281,54.4521484 L60.4179688,54.3154297 C60.4667971,54.6637387 60.6027007,54.9306631 60.8256836,55.1162109 C61.0486665,55.3017587 61.3603496,55.3945312 61.7607422,55.3945312 C62.16439,55.3945312 62.4638662,55.3123381 62.6591797,55.1479492 C62.8544932,54.9835604 62.9521484,54.7906912 62.9521484,54.5693359 C62.9521484,54.3707672 62.8658863,54.2145188 62.6933594,54.1005859 C62.5729161,54.0224605 62.2734399,53.9231777 61.7949219,53.8027344 C61.1503874,53.6399731 60.7036145,53.4991868 60.4545898,53.3803711 C60.2055652,53.2615554 60.016765,53.097169 59.8881836,52.887207 C59.7596022,52.677245 59.6953125,52.4453138 59.6953125,52.1914062 C59.6953125,51.9602853 59.7482091,51.7462575 59.8540039,51.5493164 C59.9597987,51.3523753 60.1038402,51.1888027 60.2861328,51.0585938 C60.4228522,50.9576818 60.6092111,50.8722334 60.8452148,50.8022461 C61.0812186,50.7322588 61.3343085,50.6972656 61.6044922,50.6972656 C62.0113953,50.6972656 62.3686508,50.7558588 62.6762695,50.8730469 C62.9838883,50.990235 63.2109368,51.1489248 63.3574219,51.3491211 C63.503907,51.5493174 63.6048174,51.8170556 63.6601562,52.1523438 L62.8007812,52.2695312 C62.7617186,52.0026028 62.6486012,51.7942716 62.4614258,51.6445312 C62.2742504,51.4947909 62.0097673,51.4199219 61.6679688,51.4199219 C61.2643209,51.4199219 60.9762378,51.486653 60.8037109,51.6201172 C60.631184,51.7535814 60.5449219,51.9098298 60.5449219,52.0888672 C60.5449219,52.2028 60.5807288,52.3053381 60.6523438,52.3964844 C60.7239587,52.4908859 60.8362623,52.5690101 60.9892578,52.6308594 C61.0771489,52.6634116 61.3359354,52.7382807 61.765625,52.8554688 C62.3873729,53.0214852 62.8211251,53.1573888 63.0668945,53.2631836 C63.312664,53.3689784 63.5055332,53.5227854 63.6455078,53.7246094 C63.7854825,53.9264333 63.8554688,54.1770818 63.8554688,54.4765625 C63.8554688,54.7695327 63.7700204,55.0454089 63.5991211,55.3041992 C63.4282218,55.5629896 63.1816422,55.7631829 62.859375,55.9047852 C62.5371078,56.0463874 62.1725281,56.1171875 61.765625,56.1171875 C61.0917935,56.1171875 60.5782895,55.9772149 60.2250977,55.6972656 C59.8719058,55.4173163 59.6464849,55.0022814 59.5488281,54.4521484 Z M67.7910156,56 L67.7910156,48.8417969 L70.4912109,48.8417969 C70.9664737,48.8417969 71.3294258,48.8645831 71.5800781,48.9101562 C71.9316424,48.9687503 72.2262358,49.0802401 72.4638672,49.2446289 C72.7014986,49.4090177 72.8927402,49.6393214 73.0375977,49.9355469 C73.1824552,50.2317723 73.2548828,50.5572899 73.2548828,50.9121094 C73.2548828,51.5208364 73.0611999,52.0359679 72.6738281,52.4575195 C72.2864564,52.8790711 71.5865936,53.0898438 70.5742188,53.0898438 L68.7382812,53.0898438 L68.7382812,56 L67.7910156,56 Z M68.7382812,52.2451172 L70.5888672,52.2451172 C71.2008494,52.2451172 71.6354154,52.131186 71.8925781,51.9033203 C72.1497409,51.6754546 72.2783203,51.3548198 72.2783203,50.9414062 C72.2783203,50.6419256 72.2026375,50.3855805 72.0512695,50.1723633 C71.8999016,49.9591461 71.7005221,49.8183597 71.453125,49.75 C71.293619,49.7076821 70.9990256,49.6865234 70.5693359,49.6865234 L68.7382812,49.6865234 L68.7382812,52.2451172 Z M74.3388672,56 L74.3388672,50.8144531 L75.1298828,50.8144531 L75.1298828,51.6005859 C75.3317067,51.2327456 75.5180656,50.990235 75.6889648,50.8730469 C75.8598641,50.7558588 76.0478505,50.6972656 76.2529297,50.6972656 C76.5491551,50.6972656 76.8502589,50.7916657 77.15625,50.9804688 L76.8535156,51.7958984 C76.6386708,51.6689447 76.4238292,51.6054688 76.2089844,51.6054688 C76.0169261,51.6054688 75.8444018,51.6632481 75.6914062,51.7788086 C75.5384107,51.8943691 75.4293623,52.0546865 75.3642578,52.2597656 C75.2666011,52.5722672 75.2177734,52.9140606 75.2177734,53.2851562 L75.2177734,56 L74.3388672,56 Z M77.3515625,53.4072266 C77.3515625,52.4469353 77.6184869,51.7356794 78.1523438,51.2734375 C78.5983095,50.889321 79.1419239,50.6972656 79.7832031,50.6972656 C80.4960973,50.6972656 81.0787738,50.9308245 81.53125,51.3979492 C81.9837262,51.865074 82.2099609,52.5104125 82.2099609,53.3339844 C82.2099609,54.0013054 82.1098643,54.5262025 81.909668,54.9086914 C81.7094717,55.2911803 81.4181334,55.5882151 81.0356445,55.7998047 C80.6531556,56.0113943 80.2356793,56.1171875 79.7832031,56.1171875 C79.057288,56.1171875 78.4705426,55.8844424 78.0229492,55.4189453 C77.5753558,54.9534482 77.3515625,54.282882 77.3515625,53.4072266 Z M78.2548828,53.4072266 C78.2548828,54.0712924 78.3997381,54.5685205 78.6894531,54.8989258 C78.9791681,55.2293311 79.3437478,55.3945312 79.7832031,55.3945312 C80.2194032,55.3945312 80.5823553,55.2285173 80.8720703,54.8964844 C81.1617853,54.5644515 81.3066406,54.0582716 81.3066406,53.3779297 C81.3066406,52.7366504 81.1609715,52.2508155 80.8696289,51.9204102 C80.5782863,51.5900049 80.216148,51.4248047 79.7832031,51.4248047 C79.3437478,51.4248047 78.9791681,51.5891911 78.6894531,51.9179688 C78.3997381,52.2467464 78.2548828,52.7431607 78.2548828,53.4072266 Z M86.6240234,54.1005859 L87.4882812,54.2128906 C87.3938797,54.8085967 87.1521829,55.2749007 86.7631836,55.6118164 C86.3741843,55.9487322 85.8964872,56.1171875 85.3300781,56.1171875 C84.6204392,56.1171875 84.0499696,55.8852562 83.6186523,55.4213867 C83.1873351,54.9575172 82.9716797,54.2926476 82.9716797,53.4267578 C82.9716797,52.8668592 83.0644522,52.3769552 83.25,51.9570312 C83.4355478,51.5371073 83.7179343,51.222169 84.097168,51.012207 C84.4764016,50.802245 84.8889952,50.6972656 85.3349609,50.6972656 C85.8981148,50.6972656 86.3587222,50.8396796 86.7167969,51.1245117 C87.0748716,51.4093439 87.3043615,51.8137995 87.4052734,52.3378906 L86.5507812,52.4697266 C86.4694006,52.1214175 86.3253591,51.8593759 86.1186523,51.6835938 C85.9119456,51.5078116 85.6621108,51.4199219 85.3691406,51.4199219 C84.9264301,51.4199219 84.5667332,51.5786117 84.2900391,51.8959961 C84.013345,52.2133805 83.875,52.7154914 83.875,53.4023438 C83.875,54.0989618 84.0084622,54.6051417 84.2753906,54.9208984 C84.542319,55.2366552 84.8906229,55.3945312 85.3203125,55.3945312 C85.6653663,55.3945312 85.9534494,55.288738 86.1845703,55.0771484 C86.4156913,54.8655588 86.5621742,54.5400413 86.6240234,54.1005859 Z M91.7900391,54.3300781 L92.6982422,54.4423828 C92.5550123,54.9729844 92.2897155,55.3847642 91.9023438,55.6777344 C91.514972,55.9707046 91.0201853,56.1171875 90.4179688,56.1171875 C89.6595014,56.1171875 89.0581077,55.8836286 88.6137695,55.4165039 C88.1694314,54.9493792 87.9472656,54.294275 87.9472656,53.4511719 C87.9472656,52.5787717 88.1718728,51.9016951 88.6210938,51.4199219 C89.0703147,50.9381486 89.6529912,50.6972656 90.3691406,50.6972656 C91.0625035,50.6972656 91.6289041,50.9332659 92.0683594,51.4052734 C92.5078147,51.877281 92.7275391,52.5413369 92.7275391,53.3974609 C92.7275391,53.4495445 92.7259115,53.5276688 92.7226562,53.6318359 L88.8554688,53.6318359 C88.888021,54.2015002 89.0491522,54.6376938 89.3388672,54.9404297 C89.6285822,55.2431656 89.9899067,55.3945312 90.4228516,55.3945312 C90.7451188,55.3945312 91.0201812,55.3098967 91.2480469,55.140625 C91.4759126,54.9713533 91.6565749,54.7011737 91.7900391,54.3300781 Z M88.9042969,52.9091797 L91.7998047,52.9091797 C91.760742,52.4729796 91.650066,52.1458344 91.4677734,51.9277344 C91.1878241,51.589191 90.824872,51.4199219 90.3789062,51.4199219 C89.9752584,51.4199219 89.6359063,51.5550117 89.3608398,51.8251953 C89.0857734,52.095379 88.9335939,52.4567035 88.9042969,52.9091797 Z M93.4501953,54.4521484 L94.3193359,54.3154297 C94.3681643,54.6637387 94.5040679,54.9306631 94.7270508,55.1162109 C94.9500337,55.3017587 95.2617167,55.3945312 95.6621094,55.3945312 C96.0657572,55.3945312 96.3652334,55.3123381 96.5605469,55.1479492 C96.7558604,54.9835604 96.8535156,54.7906912 96.8535156,54.5693359 C96.8535156,54.3707672 96.7672535,54.2145188 96.5947266,54.1005859 C96.4742833,54.0224605 96.1748071,53.9231777 95.6962891,53.8027344 C95.0517546,53.6399731 94.6049817,53.4991868 94.355957,53.3803711 C94.1069323,53.2615554 93.9181322,53.097169 93.7895508,52.887207 C93.6609694,52.677245 93.5966797,52.4453138 93.5966797,52.1914062 C93.5966797,51.9602853 93.6495763,51.7462575 93.7553711,51.5493164 C93.8611659,51.3523753 94.0052074,51.1888027 94.1875,51.0585938 C94.3242194,50.9576818 94.5105782,50.8722334 94.746582,50.8022461 C94.9825858,50.7322588 95.2356757,50.6972656 95.5058594,50.6972656 C95.9127625,50.6972656 96.270018,50.7558588 96.5776367,50.8730469 C96.8852554,50.990235 97.112304,51.1489248 97.2587891,51.3491211 C97.4052742,51.5493174 97.5061846,51.8170556 97.5615234,52.1523438 L96.7021484,52.2695312 C96.6630857,52.0026028 96.5499684,51.7942716 96.362793,51.6445312 C96.1756176,51.4947909 95.9111345,51.4199219 95.5693359,51.4199219 C95.1656881,51.4199219 94.877605,51.486653 94.7050781,51.6201172 C94.5325512,51.7535814 94.4462891,51.9098298 94.4462891,52.0888672 C94.4462891,52.2028 94.482096,52.3053381 94.5537109,52.3964844 C94.6253259,52.4908859 94.7376294,52.5690101 94.890625,52.6308594 C94.9785161,52.6634116 95.2373025,52.7382807 95.6669922,52.8554688 C96.2887401,53.0214852 96.7224923,53.1573888 96.9682617,53.2631836 C97.2140312,53.3689784 97.4069003,53.5227854 97.546875,53.7246094 C97.6868497,53.9264333 97.7568359,54.1770818 97.7568359,54.4765625 C97.7568359,54.7695327 97.6713876,55.0454089 97.5004883,55.3041992 C97.329589,55.5629896 97.0830094,55.7631829 96.7607422,55.9047852 C96.438475,56.0463874 96.0738953,56.1171875 95.6669922,56.1171875 C94.9931607,56.1171875 94.4796567,55.9772149 94.1264648,55.6972656 C93.773273,55.4173163 93.5478521,55.0022814 93.4501953,54.4521484 Z M98.4501953,54.4521484 L99.3193359,54.3154297 C99.3681643,54.6637387 99.5040679,54.9306631 99.7270508,55.1162109 C99.9500337,55.3017587 100.261717,55.3945312 100.662109,55.3945312 C101.065757,55.3945312 101.365233,55.3123381 101.560547,55.1479492 C101.75586,54.9835604 101.853516,54.7906912 101.853516,54.5693359 C101.853516,54.3707672 101.767253,54.2145188 101.594727,54.1005859 C101.474283,54.0224605 101.174807,53.9231777 100.696289,53.8027344 C100.051755,53.6399731 99.6049817,53.4991868 99.355957,53.3803711 C99.1069323,53.2615554 98.9181322,53.097169 98.7895508,52.887207 C98.6609694,52.677245 98.5966797,52.4453138 98.5966797,52.1914062 C98.5966797,51.9602853 98.6495763,51.7462575 98.7553711,51.5493164 C98.8611659,51.3523753 99.0052074,51.1888027 99.1875,51.0585938 C99.3242194,50.9576818 99.5105782,50.8722334 99.746582,50.8022461 C99.9825858,50.7322588 100.235676,50.6972656 100.505859,50.6972656 C100.912762,50.6972656 101.270018,50.7558588 101.577637,50.8730469 C101.885255,50.990235 102.112304,51.1489248 102.258789,51.3491211 C102.405274,51.5493174 102.506185,51.8170556 102.561523,52.1523438 L101.702148,52.2695312 C101.663086,52.0026028 101.549968,51.7942716 101.362793,51.6445312 C101.175618,51.4947909 100.911135,51.4199219 100.569336,51.4199219 C100.165688,51.4199219 99.877605,51.486653 99.7050781,51.6201172 C99.5325512,51.7535814 99.4462891,51.9098298 99.4462891,52.0888672 C99.4462891,52.2028 99.482096,52.3053381 99.5537109,52.3964844 C99.6253259,52.4908859 99.7376294,52.5690101 99.890625,52.6308594 C99.9785161,52.6634116 100.237303,52.7382807 100.666992,52.8554688 C101.28874,53.0214852 101.722492,53.1573888 101.968262,53.2631836 C102.214031,53.3689784 102.4069,53.5227854 102.546875,53.7246094 C102.68685,53.9264333 102.756836,54.1770818 102.756836,54.4765625 C102.756836,54.7695327 102.671388,55.0454089 102.500488,55.3041992 C102.329589,55.5629896 102.083009,55.7631829 101.760742,55.9047852 C101.438475,56.0463874 101.073895,56.1171875 100.666992,56.1171875 C99.9931607,56.1171875 99.4796567,55.9772149 99.1264648,55.6972656 C98.773273,55.4173163 98.5478521,55.0022814 98.4501953,54.4521484 Z M103.806641,49.8525391 L103.806641,48.8417969 L104.685547,48.8417969 L104.685547,49.8525391 L103.806641,49.8525391 Z M103.806641,56 L103.806641,50.8144531 L104.685547,50.8144531 L104.685547,56 L103.806641,56 Z M106.023438,56 L106.023438,50.8144531 L106.814453,50.8144531 L106.814453,51.5517578 C107.195314,50.9820935 107.745439,50.6972656 108.464844,50.6972656 C108.777345,50.6972656 109.064615,50.7534174 109.32666,50.8657227 C109.588706,50.9780279 109.78483,51.1253246 109.915039,51.3076172 C110.045248,51.4899098 110.136393,51.706379 110.188477,51.9570312 C110.221029,52.1197925 110.237305,52.4046204 110.237305,52.8115234 L110.237305,56 L109.358398,56 L109.358398,52.8457031 C109.358398,52.4876284 109.324219,52.2198902 109.255859,52.0424805 C109.1875,51.8650707 109.066244,51.7234706 108.89209,51.6176758 C108.717935,51.511881 108.513673,51.4589844 108.279297,51.4589844 C107.904946,51.4589844 107.58187,51.5777983 107.310059,51.8154297 C107.038247,52.0530611 106.902344,52.5039029 106.902344,53.1679688 L106.902344,56 L106.023438,56 Z M111.423828,56.4296875 L112.27832,56.5566406 C112.314128,56.8203138 112.413411,57.0123692 112.576172,57.1328125 C112.794272,57.2955737 113.092121,57.3769531 113.469727,57.3769531 C113.87663,57.3769531 114.190754,57.2955737 114.412109,57.1328125 C114.633465,56.9700513 114.783203,56.742189 114.861328,56.4492188 C114.906901,56.2701814 114.92806,55.8942086 114.924805,55.3212891 C114.540688,55.7737653 114.062177,56 113.489258,56 C112.776364,56 112.224611,55.7428411 111.833984,55.2285156 C111.443357,54.7141901 111.248047,54.0973343 111.248047,53.3779297 C111.248047,52.8831355 111.337564,52.4265971 111.516602,52.0083008 C111.695639,51.5900044 111.955239,51.2669282 112.29541,51.0390625 C112.635581,50.8111968 113.035154,50.6972656 113.494141,50.6972656 C114.106123,50.6972656 114.610675,50.944659 115.007812,51.4394531 L115.007812,50.8144531 L115.818359,50.8144531 L115.818359,55.296875 C115.818359,56.1041707 115.736166,56.6762678 115.571777,57.0131836 C115.407389,57.3500993 115.146974,57.61621 114.790527,57.8115234 C114.43408,58.0068369 113.995445,58.1044922 113.474609,58.1044922 C112.856117,58.1044922 112.356447,57.9653334 111.975586,57.6870117 C111.594725,57.40869 111.410807,56.9895861 111.423828,56.4296875 Z M112.151367,53.3144531 C112.151367,53.9947951 112.286457,54.4912094 112.556641,54.8037109 C112.826824,55.1162125 113.165363,55.2724609 113.572266,55.2724609 C113.975913,55.2724609 114.314452,55.1170263 114.587891,54.8061523 C114.861329,54.4952784 114.998047,54.0078158 114.998047,53.34375 C114.998047,52.7089812 114.857261,52.2304704 114.575684,51.9082031 C114.294107,51.5859359 113.954755,51.4248047 113.557617,51.4248047 C113.16699,51.4248047 112.834962,51.5834945 112.561523,51.9008789 C112.288085,52.2182633 112.151367,52.68945 112.151367,53.3144531 Z" id="Online-Claims-Proces"></path>
                </g>
            </g>
        </g>
    </g>
</svg>