<?xml version="1.0" encoding="UTF-8" standalone="no"?>
<svg width="131px" height="131px" viewBox="0 0 131 131" version="1.1" xmlns="http://www.w3.org/2000/svg" xmlns:xlink="http://www.w3.org/1999/xlink">
    <!-- Generator: Sketch 39.1 (31720) - http://www.bohemiancoding.com/sketch -->
    <title>health-kit</title>
    <desc>Created with Sketch.</desc>
    <defs>
        <ellipse id="path-1" cx="64.8604666" cy="64.9945722" rx="64.8604666" ry="64.9945722"></ellipse>
    </defs>
    <g id="Kiosk" stroke="none" stroke-width="1" fill="none" fill-rule="evenodd">
        <g id="Kiosk---Main" transform="translate(-780.000000, -333.000000)">
            <g id="Doctors" transform="translate(672.000000, 318.000000)">
                <g id="health-kit" transform="translate(108.589676, 15.403950)">
                    <mask id="mask-2" fill="white">
                        <use xlink:href="#path-1"></use>
                    </mask>
                    <use id="Mask" fill="#88EBFF" xlink:href="#path-1"></use>
                    <path d="M99.8727641,38.7132212 L147.915579,86.7560362 L79.9026719,154.768943 L20.1742783,95.0405499 L99.8727641,95.0405499 L99.8727641,38.7132212 Z" id="Rectangle-17" fill-opacity="0.75" fill="#4AC8E2" mask="url(#mask-2)"></path>
                    <g mask="url(#mask-2)">
                        <g transform="translate(18.531562, 22.748100)">
                            <path d="M69.1560826,10.1539589 C81.8964371,10.1539589 92.3203635,20.6186039 92.3203635,33.4087255 L92.3203635,61.1098035 C92.3203635,73.8999251 81.8964371,84.3645701 69.1560826,84.3645701 L23.7718513,84.3645701 C11.0314968,84.3645701 0.607570344,73.8999251 0.607570344,61.1098035 L0.607570344,33.4087255 C0.607570344,20.6186039 11.0314968,10.1539589 23.7718513,10.1539589 L69.1560826,10.1539589 L69.1560826,10.1539589 Z" id="Stroke-43" fill="#EA3C51"></path>
                            <polygon id="Stroke-45" fill="#EA3C51" points="60.6266996 0.189682783 60.6266996 10.1535751 56.0116027 10.1535751 56.0116027 4.82358261 36.9072481 4.82358261 36.9072481 10.1535751 32.2929233 10.1535751 32.2929233 0.189682783"></polygon>
                            <path d="M28.7429698,47.2472915 C28.7429698,37.4283539 36.6751917,29.4666969 46.4621004,29.4666969 C56.248237,29.4666969 64.1804589,37.4283539 64.1804589,47.2472915 C64.1804589,57.0708801 56.248237,65.0348625 46.4621004,65.0348625 C36.6751917,65.0348625 28.7429698,57.0708801 28.7429698,47.2472915 L28.7429698,47.2472915 Z" id="Stroke-47" fill="#FFFFFF"></path>
                            <polygon id="Stroke-49" fill="#EA3C51" points="57.9241725 44.5577028 49.1425936 44.5577028 49.1425936 35.7449214 43.7808347 35.7449214 43.7808347 44.5577028 34.9992558 44.5577028 34.9992558 49.9380806 43.7808347 49.9380806 43.7808347 58.7531875 49.1425936 58.7531875 49.1425936 49.9380806 57.9241725 49.9380806"></polygon>
                        </g>
                    </g>
                </g>
            </g>
        </g>
    </g>
</svg>