<?xml version="1.0" encoding="UTF-8" standalone="no"?>
<svg width="78px" height="78px" viewBox="0 0 78 78" version="1.1" xmlns="http://www.w3.org/2000/svg" xmlns:xlink="http://www.w3.org/1999/xlink">
    <!-- Generator: Sketch 39.1 (31720) - http://www.bohemiancoding.com/sketch -->
    <title>heart copy</title>
    <desc>Created with Sketch.</desc>
    <defs>
        <ellipse id="path-1" cx="38.3449116" cy="38.4241936" rx="38.3449116" ry="38.4241936"></ellipse>
    </defs>
    <g id="Kiosk" stroke="none" stroke-width="1" fill="none" fill-rule="evenodd">
        <g id="Kiosk---Main" transform="translate(-271.000000, -367.000000)">
            <g id="Services" transform="translate(247.000000, 318.000000)">
                <g id="heart-copy" transform="translate(24.683426, 49.778063)">
                    <mask id="mask-2" fill="white">
                        <use xlink:href="#path-1"></use>
                    </mask>
                    <use id="Mask" fill="#EDF2F9" xlink:href="#path-1"></use>
                    <polygon id="Path-231" fill-opacity="0.3" fill="#BEC9D9" mask="url(#mask-2)" points="23.3740196 53.4320862 66.3415076 96.458615 100.620725 62.1322954 58.7218524 20.1758506"></polygon>
                    <g id="heart" mask="url(#mask-2)">
                        <g transform="translate(10.955689, 15.918595)">
                            <path d="M54.6389458,16.5284927 C54.6389458,7.49223672 47.2996169,0.167884221 38.2454568,0.167884221 C34.0730414,0.167884221 30.2752521,1.7380171 27.3803719,4.30147098 C24.4878129,1.7380171 20.6900235,0.167884221 16.5176081,0.167884221 C7.46344803,0.167884221 0.122726476,7.49223672 0.122726476,16.5284927 C0.122726476,16.6633138 0.141295303,16.7935019 0.145009069,16.9246165 C0.137581538,17.0404422 0.122726476,17.1562679 0.122726476,17.2767266 C0.122726476,32.2993169 27.3803719,50.3685858 27.3803719,50.3685858 C27.3803719,50.3685858 54.6389458,32.2993169 54.6389458,17.2767266 C54.6389458,17.1562679 54.6259476,17.0404422 54.6185201,16.9246165 C54.6222339,16.7935019 54.6389458,16.6633138 54.6389458,16.5284927 L54.6389458,16.5284927 Z" id="Stroke-51" stroke="none" fill="#EA3C51" fill-rule="evenodd"></path>
                            <polyline id="Stroke-53" stroke="#C9FF88" stroke-width="1.25598086" fill="none" points="2.30440849 25.2678827 7.089131 25.1126763 7.089131 25.268346 8.92976598 19.2176126 10.7717936 13.1678059 12.6138213 19.2176126 14.4558489 25.268346 16.2978766 31.318616 18.13944 37.3684228 19.980075 31.318616 21.8221026 25.268346 26.0841126 25.1126763 27.6717473 20.3855988 29.1567893 15.5037781 30.6427597 20.3855988 32.1291943 25.268346 33.6147004 30.1501666 35.101135 35.0324505 36.5880339 30.1501666 38.07354 25.268346 39.2735505 21.3261033 40.4726325 17.3843238 41.6735714 21.3261033 42.874046 25.268346 44.0735923 29.054919 45.2731385 32.9966985 46.473149 29.054919 47.6726952 25.1126763 52.5354068 25.1126763"></polyline>
                        </g>
                    </g>
                </g>
            </g>
        </g>
    </g>
</svg>