<?xml version="1.0" encoding="UTF-8" standalone="no"?>
<svg width="181px" height="56px" viewBox="0 0 181 56" version="1.1" xmlns="http://www.w3.org/2000/svg" xmlns:xlink="http://www.w3.org/1999/xlink">
    <!-- Generator: Sketch 41.2 (35397) - http://www.bohemiancoding.com/sketch -->
    <title>his8-logo-welcome</title>
    <desc>Created with Sketch.</desc>
    <defs></defs>
    <g id="Welcome" stroke="none" stroke-width="1" fill="none" fill-rule="evenodd">
        <g transform="translate(-60.000000, -360.000000)" id="Group-4-Copy">
            <g transform="translate(50.000000, 330.000000)">
                <g id="his8-logo-welcome" transform="translate(10.000000, 28.000000)">
                    <g id="Group-2" transform="translate(0.000000, 9.000000)">
                        <g id="Group">
                            <ellipse id="Oval-2" fill="#FFFFFF" cx="21.3277515" cy="18.5" rx="18.2307602" ry="18.5"></ellipse>
                            <path d="M11.0904352,25.486396 C13.3307378,28.6503622 16.988807,30.7110482 21.1211706,30.7110482 C27.567101,30.7110482 32.858988,25.697029 33.4159465,19.3027597 L43.9680425,15.8741759 L41.68984,8.86258961 L31.8839035,12.0487315 C29.7679274,8.23551687 25.7409373,5.66005666 21.1211706,5.66005666 C14.4851275,5.66005666 9.07220523,10.9741987 8.78956299,17.6376208 L0.713447593,20.2617098 L3.23985849,28.037203 L11.0904352,25.486396 Z M29.9525021,17.1278651 C29.9525021,16.4571329 29.4162428,15.9129539 28.7552721,15.9129539 L23.5672757,15.9129539 L23.5672757,10.6483389 C23.5672757,9.97760672 23.0310165,9.43342776 22.3700458,9.43342776 L19.9755859,9.43342776 C19.3146152,9.43342776 18.778356,9.97760672 18.778356,10.6483389 L18.778356,15.9129539 L13.5903596,15.9129539 C12.9293889,15.9129539 12.3931296,16.4571329 12.3931296,17.1278651 L12.3931296,19.5576874 C12.3931296,20.2284196 12.9293889,20.7725985 13.5903596,20.7725985 L18.778356,20.7725985 L18.778356,26.0372135 C18.778356,26.7079457 19.3146152,27.2521246 19.9755859,27.2521246 L22.3700458,27.2521246 C23.0310165,27.2521246 23.5672757,26.7079457 23.5672757,26.0372135 L23.5672757,20.7725985 L28.7552721,20.7725985 C29.4162428,20.7725985 29.9525021,20.2284196 29.9525021,19.5576874 L29.9525021,17.1278651 Z" id="Combined-Shape" fill="#6C8DB3"></path>
                        </g>
                        <text id="Hospital-Information" font-family="Arial-BoldMT, Arial" font-size="14" font-weight="bold" fill="#FFFFFF">
                            <tspan x="51" y="16">Hospital </tspan>
                            <tspan x="51" y="32">Information System</tspan>
                        </text>
                        <text id="Version-8" font-family="ArialMT, Arial" font-size="9.6" font-weight="normal" fill="#FFFFFF">
                            <tspan x="52.1074084" y="48">Version 8</tspan>
                        </text>
                    </g>
                    <text id="BIZBOX" font-family="Arial-BoldMT, Arial" font-size="9.60000038" font-weight="bold" fill="#FFFFFF">
                        <tspan x="50.9241379" y="9">BIZBOX</tspan>
                    </text>
                </g>
            </g>
        </g>
    </g>
</svg>