<?xml version="1.0" encoding="UTF-8" standalone="no"?>
<svg width="78px" height="78px" viewBox="0 0 78 78" version="1.1" xmlns="http://www.w3.org/2000/svg" xmlns:xlink="http://www.w3.org/1999/xlink">
    <!-- Generator: Sketch 39.1 (31720) - http://www.bohemiancoding.com/sketch -->
    <title>microscope</title>
    <desc>Created with Sketch.</desc>
    <defs>
        <ellipse id="path-1" cx="38.6188038" cy="38.4241936" rx="38.3449116" ry="38.4241936"></ellipse>
    </defs>
    <g id="Kiosk" stroke="none" stroke-width="1" fill="none" fill-rule="evenodd">
        <g id="Kiosk---Main" transform="translate(-384.000000, -366.000000)">
            <g id="Services" transform="translate(247.000000, 318.000000)">
                <g id="microscope" transform="translate(137.338585, 48.574571)">
                    <mask id="mask-2" fill="white">
                        <use xlink:href="#path-1"></use>
                    </mask>
                    <use id="Mask" fill="#FFD768" xlink:href="#path-1"></use>
                    <path d="M22.2717851,65.6412162 L22.7823725,66.1549376 L54.0258326,97.4413288 L87.4536038,62.1333169 L50.672443,25.3016158 C52.9894973,28.7231726 54.3431391,32.8520895 54.3431391,37.2976008 C54.3431391,49.1166395 44.7750624,58.6978635 32.9722417,58.6978635 C32.026572,58.6978635 31.0952484,58.636356 30.1820429,58.517118 L32.7749366,59.3837608 L22.2717851,65.6412162 Z" id="Path-227" fill-opacity="0.5" fill="#F5A623" mask="url(#mask-2)"></path>
                    <g id="Group" mask="url(#mask-2)">
                        <g transform="translate(14.790180, 10.978341)">
                            <path d="M40.1092831,54.664753 L7.31256886,54.664753 C7.31256886,52.0763787 10.1975456,49.7993878 14.5802233,48.4590421 C11.3987903,47.5298821 8.12583386,45.8876342 4.8697894,43.4120367 L7.39762593,43.4120367 C9.17188664,44.2992797 11.2963238,45.199497 13.6436006,45.7284495 C19.957223,47.4016361 27.9421424,46.3242696 33.2410488,40.4019974 C38.7060901,34.63891 39.14779,26.5639009 36.9845549,20.3866338 C36.3130517,18.2089462 35.3306673,16.2588081 34.3617131,14.6130671 L35.4396001,13.5312095 C46.2851231,27.4261934 40.7773045,42.5931583 29.4025375,47.6571301 C35.6524915,48.7105441 40.1092831,51.4486218 40.1092831,54.664753 L40.1092831,54.664753 Z" id="Stroke-97" fill="#225693"></path>
                            <polygon id="Stroke-99" fill="#4A90E2" points="38.7734295 10.2122524 35.4646596 13.53118 34.3867726 14.6130376 20.8338482 28.2066183 15.8672114 23.2234864 33.8072902 5.22961953"></polygon>
                            <polygon id="Stroke-101" fill="#4A90E2" points="20.6040147 43.4120515 0.359436365 43.4120515 0.359436365 39.2028869 20.6040147 39.2028869"></polygon>
                            <polygon id="Stroke-103" fill="#225693" points="14.4530944 24.4811516 19.4197311 29.4632855 16.0607228 32.8321142 11.0945835 27.8494813"></polygon>
                            <polygon id="Stroke-105" fill="#225693" points="38.2366707 0.377305621 43.2033074 5.35943952 39.8442991 8.72826825 34.8781598 3.74563533"></polygon>
                        </g>
                    </g>
                </g>
            </g>
        </g>
    </g>
</svg>