<?xml version="1.0" encoding="UTF-8" standalone="no"?>
<svg width="78px" height="77px" viewBox="0 0 78 77" version="1.1" xmlns="http://www.w3.org/2000/svg" xmlns:xlink="http://www.w3.org/1999/xlink">
    <!-- Generator: Sketch 39.1 (31720) - http://www.bohemiancoding.com/sketch -->
    <title>monitoring</title>
    <desc>Created with Sketch.</desc>
    <defs>
        <ellipse id="path-1" cx="38.3449116" cy="38.4241936" rx="38.3449116" ry="38.4241936"></ellipse>
    </defs>
    <g id="Kiosk" stroke="none" stroke-width="1" fill="none" fill-rule="evenodd">
        <g id="Kiosk---Main" transform="translate(-497.000000, -369.000000)">
            <g id="Services" transform="translate(247.000000, 318.000000)">
                <g id="monitoring" transform="translate(250.604341, 51.020316)">
                    <mask id="mask-2" fill="white">
                        <use xlink:href="#path-1"></use>
                    </mask>
                    <use id="Mask" fill="#EDF2F9" xlink:href="#path-1"></use>
                    <path d="M59.6544572,16.1525422 L93.3318721,49.8299571 L54.5175751,88.6442541 L38.4676153,72.5942943 L38.4676153,29.5684388 L48.4075806,19.6284735 L59.6544572,19.6284735 L59.6544572,16.1525422 Z" id="Rectangle-12" fill-opacity="0.5" fill="#BEC9D9" mask="url(#mask-2)"></path>
                    <g id="Group" mask="url(#mask-2)">
                        <g transform="translate(16.981318, 16.467512)">
                            <polygon id="Stroke-115" fill="#465366" points="23.153456 54.8496391 19.556769 54.8496391 19.556769 40.3197089 23.153456 40.3197089"></polygon>
                            <polygon id="Stroke-125" fill="#465366" points="0.358145387 0.19537381 10.8231769 40.3193886 31.8859983 40.3193886 42.3515385 0.19537381"></polygon>
                            <path d="M28.9430914,31.0178795 C28.9430914,32.4201489 27.8052342,33.5571103 26.4023686,33.5571103 C24.9989943,33.5571103 23.8616457,32.4201489 23.8616457,31.0178795 C23.8616457,29.6161184 24.9989943,28.4791569 26.4023686,28.4791569 C27.8052342,28.4791569 28.9430914,29.6161184 28.9430914,31.0178795 L28.9430914,31.0178795 Z" id="Stroke-117" fill="#C9FF88"></path>
                            <path d="M19.1042919,31.0178795 C19.1042919,32.4201489 17.9664346,33.5571103 16.5630603,33.5571103 C15.1601947,33.5571103 14.0223375,32.4201489 14.0223375,31.0178795 C14.0223375,29.6161184 15.1601947,28.4791569 16.5630603,28.4791569 C17.9664346,28.4791569 19.1042919,29.6161184 19.1042919,31.0178795 L19.1042919,31.0178795 Z" id="Stroke-119" fill="#C9FF88"></path>
                            <path d="M37.4704716,5.93064214 C37.4704716,14.8255738 30.2542082,22.0361559 21.356846,22.0361559 C12.4543972,22.0361559 5.23915119,14.8255738 5.23915119,5.93064214 L37.4704716,5.93064214 L37.4704716,5.93064214 Z" id="Stroke-123" fill="#FFFFFF"></path>
                            <path d="M18.0035581,15.6975537 C18.0895205,13.8470054 21.1729764,8.76244472 21.1729764,8.76244472 C21.1729764,8.76244472 24.7961133,14.1585644 24.7096423,16.0091127 C24.6241885,17.859661 23.0529587,19.2898843 21.2009523,19.2039896 C19.3489459,19.1180949 17.9170871,17.5481021 18.0035581,15.6975537 L18.0035581,15.6975537 Z" id="Stroke-121" fill="#74B4FF"></path>
                        </g>
                    </g>
                </g>
            </g>
        </g>
    </g>
</svg>